<?xml version="1.0" encoding="UTF-8"?>
<svg width="1024" height="1024" version="1.1" viewBox="0 0 1024 1024" xmlns="http://www.w3.org/2000/svg">
 <g stroke-width="1.105">
  <path d="m203 1003c-53.19-6.01-106.2-33.75-142.6-74.58-120.3-135.1-51.63-349.7 124.3-388.8 36.45-8.081 65.83-7.764 103.1 1.113 6.574 1.564 12.12 2.668 12.33 2.454 0.2089-0.2143 2.712-6.856 5.562-14.76 6.689-18.55 19.53-43.66 31.8-62.18l9.722-14.67-7.896-9.1c-16.42-18.92-32.53-45.64-41.35-68.58l-4.173-10.85-4.555 0.7721c-67.95 11.52-128.4-64.82-108.6-137.1 16.08-58.61 69.6-90.33 123-72.89 4.621 1.508 8.52 2.602 8.664 2.429 0.1444-0.1723 3.125-4.966 6.623-10.65 68.47-111.3 218.5-143.6 321.6-69.32 9.572 6.899 9.965 7.068 12.25 5.26 55.82-44.12 110.9-60.12 177.4-51.46 148 19.29 234.4 174.2 168.8 302.5-28.33 55.45-58.92 73.33-93.71 54.78-32.75-17.46-37.71-52.45-12.43-87.76 63.39-88.53-39.16-200.8-141.5-155l-7.913 3.543 10.81 0.7705c125.8 8.968 119.8 213.8-6.307 214.9l-17.6 0.1568-7.633 17.55c-4.198 9.653-7.88 18.35-8.182 19.33-1.405 4.553 40.76 30.06 73.12 44.24 77.87 34.11 109.1 51.51 142 79.17 131.8 110.7 123.7 318.6-16.58 423.8-42.13 31.57-90.28 49.93-144.5 55.06-15.12 1.434-552.9 1.286-565.7-0.1551zm35.92-105.4c0-0.2968-5.038-6.39-11.19-13.54-53.68-62.34-67.18-131.2-34.1-174.1 17.67-22.89 47.7-35.44 76.25-31.86 11.04 1.384 9.514 3.352 10.44-13.47l0.778-14.09-3.124-1.191c-78.13-29.8-162.3 24.19-170.8 109.6-6.703 67.05 41.81 129.6 106.9 137.9 8.59 1.091 24.87 1.564 24.87 0.7226zm565.5-11.11c79.9-28.92 124.5-108.5 107.6-191.8-11.65-57.17-52.41-98.52-132.8-134.7-10.54-4.75-27.83-12.67-38.42-17.6-10.59-4.93-19.42-8.796-19.63-8.591-0.2056 0.2056 1.407 5.799 3.584 12.43 10.59 32.27 17.47 73.37 19.1 114.1l0.7263 18.2 18.79 0.1608c27.99 0.2395 42.45 5.847 59.78 23.18 41.62 41.62 32.25 110-24.67 179.9-3.855 4.736-6.518 8.611-5.918 8.611 0.5997 0 5.951-1.76 11.89-3.91z" fill="#6cdff3"/>
  <path d="m203 1002c-137.6-15.54-230.2-155.2-193.9-292.5 32.35-122.5 155.9-196.9 278.4-167.6 13.63 3.263 11.93 4.495 18.34-13.32 6.661-18.52 19.5-43.63 31.79-62.18l9.722-14.67-7.896-9.1c-16.42-18.92-32.53-45.64-41.35-68.58l-4.173-10.85-4.555 0.7721c-67.95 11.52-128.4-64.82-108.6-137.1 16.08-58.61 69.6-90.33 123-72.89 4.621 1.508 8.52 2.602 8.664 2.429 0.1444-0.1723 3.125-4.966 6.623-10.65 68.3-111 218.7-143.7 321.1-69.67 11.55 8.353 11.48 8.343 18.25 2.587 54.61-46.44 139.7-62.02 211.1-38.65 124.6 40.79 185.1 174.5 130.5 288.5-26.99 56.36-58.65 76.24-93.37 58.65-32.74-16.59-37.89-51.74-12.73-86.99 63.28-88.68-37.81-201.1-141.3-157.1-12.25 5.209-12.21 5.453 1.051 6.198 100.3 5.64 128.3 151.4 39.02 203.2-15.99 9.265-24.31 11.42-44.73 11.61l-17.6 0.1568-7.65 17.55c-10.23 23.48-10.13 21.13-1.171 27.77 18.98 14.05 42.3 26.51 84.37 45.09 107.9 47.64 160.5 91.17 191.3 158.4 79.7 173.6-35.25 370.1-227.7 389.2-14.49 1.44-553.8 1.296-566.6-0.151zm555.5-65.01c97.14-7.11 167.4-70.37 180.6-162.6 2.998-20.95 1.602-21.38-3.436-1.047-20.37 82.2-86.95 139.2-172.8 148.1-15.88 1.63-541.5 1.614-553.4-0.0155-60.69-8.268-107.4-51.37-123.7-114.2-4.25-16.39-4.927-17.7-4.88-9.456 0.4033 70.77 61.38 133 136.4 139.1 14.75 1.214 524.7 1.265 541.2 0.0542zm-519.2-38.93c-0.4516-0.7307-5.767-7.072-11.81-14.09-66.58-77.32-69.24-163.9-6.051-196.8 15.03-7.833 36.3-11.23 52.93-8.452l5.086 0.849 0.7589-13.66c0.9565-17.22 1.323-16.49-10.16-19.98-66.57-20.23-135.7 16.67-158.1 84.42-22.99 69.48 17.1 145.7 86.6 164.7 14.15 3.865 42.58 5.98 40.76 3.031zm563.6-9.7c69.35-24.48 113.8-86.51 113.7-158.6-0.1242-61.52-29.59-109.9-88.76-145.7-17.85-10.8-105.2-52.63-106.8-51.1-0.2611 0.2611 1.563 6.844 4.053 14.63 10.7 33.44 17.13 72.16 18.76 112.9l0.7263 18.2 18.79 0.1608c27.99 0.2395 42.45 5.847 59.78 23.18 41.61 41.61 32.24 110-24.63 179.9-9.403 11.55-9.518 11.38 4.392 6.473zm-771.7-135.4c13.28-81.81 76.81-152.9 154-172.4 27.34-6.899 69.91-6.649 95.58 0.5606 4.501 1.264 8.551 1.902 9.001 1.418 0.7436-0.8008 3.264-11.27 3.264-13.55 0-0.9585-14.1-4.396-27.56-6.718-123.3-21.28-239.9 79.45-239.9 207.3 1e-3 18.87 1.468 24.3 2.538 9.395 0.5019-6.991 1.882-18.68 3.066-25.97zm966.4-26.53c-0.3312-112.7-57.98-186.6-191.7-245.5-41.55-18.31-70.19-32.95-89.48-45.74-17.25-11.44-19.94-12.31-19.94-6.476 0 3.804 41.48 31.12 63.55 41.86 87.48 42.54 91.48 44.64 113.8 59.8 76.9 52.14 120.8 129.5 121.1 213.6 0.0287 7.562 0.2492 8.648 1.382 6.791 0.9481-1.555 1.329-8.768 1.283-24.32zm-7.807-436.9c8.951-27.64 8.059-67.74-2.268-101.9-34.31-113.6-169.1-168.1-279.4-113-13.83 6.898-38.13 23.62-38.13 26.23 0 2.515 8.819 9.964 10.45 8.826 16.84-11.75 23-15.59 33.21-20.7 108.3-54.14 237.6 4.065 266.3 119.9 6.626 26.73 10.3 70.59 6.942 82.91-1.437 5.272 1.153 3.329 2.947-2.211z" fill="#e6b68b"/>
  <path d="m203 1002c-137.6-15.54-230.2-155.2-193.9-292.5 32.4-122.7 155.7-196.8 278.7-167.6 14.12 3.36 13.16 3.795 16.86-7.571 6.792-20.84 20.09-47.34 34.71-69.17l8.926-13.32-9.296-11.07c-17.09-20.36-30.25-42.28-39.87-66.44-4.197-10.54-4.864-11.58-7.27-11.29-79.69 9.342-136.5-72.86-104.9-151.8 20.19-50.43 70.12-72.19 123.9-54.02 1.214 0.4103 3.578-2.466 8.29-10.08 51.98-84.04 143.5-124.3 238.8-105 27.83 5.629 61.41 19.87 82.05 34.8 10.98 7.944 11.04 7.949 18.27 1.783 54.61-46.58 139.8-62.22 211.3-38.81 124.6 40.79 185.1 174.5 130.5 288.5-26.99 56.36-58.65 76.24-93.37 58.65-32.74-16.59-37.89-51.74-12.73-86.99 65.84-92.27-42.25-204.2-148.5-153.8-5.714 2.711-4.392 3.296 8.931 3.953 92.74 4.568 125.4 137.9 47.78 195.1-18.67 13.76-42.4 20.64-62.53 18.14-10.14-1.264-9.479-1.842-15.88 13.89-2.774 6.823-6.302 14.89-7.84 17.92-3.734 7.368-3.904 6.92 5.217 13.76 18.87 14.15 42.19 26.65 84.83 45.48 107.9 47.64 160.5 91.17 191.3 158.4 79.7 173.6-35.25 370.1-227.7 389.2-14.49 1.44-553.8 1.296-566.6-0.151zm555.5-65.01c97.14-7.11 167.4-70.37 180.6-162.6 2.998-20.95 1.602-21.38-3.436-1.047-20.37 82.2-86.95 139.2-172.8 148.1-15.88 1.63-541.5 1.614-553.4-0.0155-60.69-8.268-107.4-51.37-123.7-114.2-4.25-16.39-4.927-17.7-4.88-9.456 0.4033 70.77 61.38 133 136.4 139.1 14.75 1.214 524.7 1.265 541.2 0.0542zm-518.5-38.8c0-0.6585-4.402-6.254-9.783-12.43-52.19-59.95-67.73-123.9-40.9-168.3 15.03-24.89 47.29-41.15 76.66-38.62 4.863 0.4177 10.09 0.8515 11.61 0.9639l2.763 0.2045 0.6449-13.82c0.7974-17.08 1.021-16.66-10.8-20.26-66.7-20.27-135.8 16.57-158.2 84.38-22.99 69.48 17.1 145.7 86.6 164.7 13.82 3.776 41.45 5.884 41.45 3.163zm562.9-9.831c69.35-24.48 113.8-86.51 113.7-158.6-0.1246-61.66-29.54-109.8-89.09-145.9-18.27-11.07-105.7-52.7-107.3-51.1-0.3386 0.3385 1.376 6.751 3.81 14.25 11.05 34.04 16.98 69.36 18.86 112.3 1.041 23.8-0.1753 21.67 11.5 20.12 25.35-3.374 50.04 5.022 68.24 23.2 41.74 41.71 30.99 113.4-27.31 182-7.196 8.471-6.546 8.791 7.67 3.773zm-272.8-38.18c26.77-4.668 56.55-22.9 63.13-38.63 10.45-25 17.94-128.2 10.96-150.9-26.79-87.07-140.3-95.25-178.5-12.84-11.06 23.9-9.688 94.74 2.92 151 3.477 15.52 4.005 16.55 12.76 24.94 23.11 22.17 56.36 32.08 88.71 26.43zm-498.9-97.25c13.28-81.81 76.81-152.9 154-172.4 27.34-6.899 69.91-6.649 95.58 0.5606 4.501 1.264 8.551 1.902 9.001 1.418 0.7436-0.8008 3.264-11.27 3.264-13.55 0-0.9585-14.1-4.396-27.56-6.718-123.3-21.28-239.9 79.45-239.9 207.3 1e-3 18.87 1.468 24.3 2.538 9.395 0.5019-6.991 1.882-18.68 3.066-25.97zm966.4-26.53c-0.3312-112.7-57.98-186.6-191.7-245.5-41.55-18.31-70.19-32.95-89.48-45.74-17.25-11.44-19.94-12.31-19.94-6.476 0 3.804 41.48 31.12 63.55 41.86 87.48 42.54 91.48 44.64 113.8 59.8 76.9 52.14 120.8 129.5 121.1 213.6 0.0287 7.562 0.2492 8.648 1.382 6.791 0.9481-1.555 1.329-8.768 1.283-24.32zm-458.8-232.2c74.21-12.79 117.3-84.51 86.91-144.6-6.933-13.69-5.915-17.79 6.902-27.75 55.32-42.99 36.81-135.1-29.94-148.9-27.91-5.791-50.04 1.318-71.63 23.02-18.67 18.76-19.74 18.9-33.15 4.135-18.83-20.74-41.1-30.5-65.63-28.76-74.43 5.283-99.98 103.5-39.48 151.8 12.35 9.86 12.86 12.22 5.892 27-25.15 53.34 2.927 114.9 62.64 137.4 24.02 9.039 50.36 11.29 77.48 6.616zm-49.91-53.08c-38.98-6.537-75.44-33.9-63.73-47.81 6.256-7.434 11.87-7.083 21.54 1.349 36.64 31.96 94.25 31.94 131.1-0.039 7.968-6.909 11.51-7.951 16.95-4.985 15.36 8.375 6.506 23.39-23.45 39.78-22.38 12.24-53.19 16.62-82.44 11.71zm-0.5216-88.98c-1.082-0.6295-3.195-3.091-4.697-5.47-1.502-2.379-4.673-5.317-7.048-6.528-11.13-5.677-12.03-17.76-1.697-22.67 9.94-4.717 30.33 12.64 30.33 25.81 0 7.479-10.13 12.79-16.89 8.854zm34.18-1.499c-10.67-9.885 7.862-34.93 25.07-33.89 7.979 0.4834 11.27 13.28 4.889 19.01-4.711 4.23-12.5 11.97-15.19 15.1-3.089 3.59-10.78 3.474-14.77-0.2235zm-93.77-54.06c-31.33-8.689-28.03-55.88 4.191-59.9 16.76-2.094 32.1 10.88 33.34 28.2 1.464 20.46-18.19 37.06-37.53 31.7zm153.1 0.3721c-27.31-5.54-33.27-41.5-9.276-56 20.49-12.38 44.71 2.114 44.68 26.74-0.0221 19.21-16.76 33.04-35.4 29.26zm-295.9 40.6c0.206-0.206-0.5762-6.853-1.738-14.77-4.136-28.18-3.924-58.91 0.5841-84.89 1.972-11.36 1.361-12.65-6.102-12.87-15.56-0.4632-22.82 4.288-29.93 19.59-11.19 24.09-30.27 12.78-19.98-11.84 10.19-24.39 34.28-37.19 57.1-30.32 2.971 0.8942 5.742 1.267 6.157 0.829 1.145-1.209 8.92-22.49 8.405-23-1.836-1.836-19.2-4.876-27.85-4.876-74.26 0-96.56 115.2-29.88 154.3 11.9 6.973 39.16 11.95 43.22 7.897zm481.2-1.914c70.03-20.41 71.33-136.6 1.76-158.3-13.33-4.156-41.96-2.012-45.3 3.393-1.064 1.722 7.778 22.88 9.392 22.47 17.54-4.41 25.63-3.924 37.91 2.273 18.94 9.561 34.44 39.56 24.99 48.38-7.648 7.144-15.45 3.777-20.38-8.798-5.541-14.12-13.42-19.89-27.23-19.91-10.75-0.016-11.28 0.6676-9.407 12.15 4.414 27.03 4.838 57.39 1.18 84.55-2.206 16.38-2.274 15.8 1.937 16.36 6.091 0.8035 17.61-0.3734 25.15-2.569zm222.6-46.12c8.951-27.64 8.059-67.74-2.268-101.9-34.31-113.6-169.1-168.1-279.4-113-13.83 6.898-38.13 23.62-38.13 26.23 0 2.515 8.819 9.964 10.45 8.826 16.84-11.75 23-15.59 33.21-20.7 108.3-54.14 237.6 4.065 266.3 119.9 6.626 26.73 10.3 70.59 6.941 82.91-1.437 5.272 1.153 3.329 2.947-2.211z" fill="#2cc1de"/>
  <path d="m214 1003c-137.4-8.861-235.8-141.2-207.8-279.4 25.32-125 150.4-209.1 271.9-182.8 24.67 5.331 22.41 5.979 27.19-7.811 7.779-22.45 19.36-45.34 33.96-67.14l8.983-13.41-9.296-11.07c-17.09-20.36-30.25-42.28-39.87-66.44-4.197-10.54-4.864-11.58-7.27-11.29-79.69 9.342-136.5-72.86-104.9-151.8 20.19-50.43 70.12-72.19 123.9-54.02 1.214 0.4103 3.578-2.466 8.29-10.08 51.98-84.04 143.5-124.3 238.8-105 27.83 5.629 61.41 19.87 82.05 34.8 11.07 8.01 10.9 7.999 19.39 1.262 132.2-104.9 332.1-31.48 357.6 131.4 9.245 58.98-5.864 113.4-45.31 163.2-26.71 33.7-81.23 21.83-92.14-20.06-4.456-17.11-0.7971-29.71 15.64-53.86 62.15-91.34-42.07-202.2-145.6-154.8-10.95 5.004-10.61 5.442 4.817 6.201 92.78 4.569 125.4 137.9 47.82 195.1-18.67 13.76-42.4 20.64-62.53 18.14-10.14-1.264-9.479-1.842-15.88 13.89-2.774 6.823-6.326 14.94-7.893 18.03-3.654 7.211-3.232 8.207 6.385 15.05 20.4 14.52 45.75 28.05 81.5 43.5 108.7 46.96 164 93.25 195 163.2 77.43 174.6-42.55 370.8-235.4 384.9-12.84 0.9391-535 1.276-549.2 0.3547zm-2.796-26.88c-2.754-0.4669-7.479-1.714-10.5-2.77s-8.058-1.877-11.19-1.822c-4.236 0.0741-5.871-0.3486-6.369-1.645-0.5016-1.307-1.035-1.441-2.13-0.5321-1.115 0.9251-1.465 0.7583-1.478-0.7045-0.0111-1.054 0.4158-2.201 0.9448-2.549 1.171-0.7699-2.697-5.446-4.504-5.446-0.9833 0-0.9825 0.5925 0 2.487l1.294 2.487-2.704-2.483c-3.037-2.789-10.32-3.024-13.44-0.4328-0.9598 0.7967-2.264 1.128-2.899 0.7354-0.6345-0.3922-1.154-0.222-1.154 0.378 0 3.697 38.41 13.11 53.61 13.14l5.526 0.0111zm597.4-6.106c17.82-4.512 19.96-6.509 8.243-7.675-2.497-0.2485-5.245-1.037-6.107-1.751-1.371-1.138-11.53-2.248-11.53-1.261 0 0.206 0.7461 1.121 1.658 2.032 0.9118 0.9119 1.658 2.12 1.658 2.684 0 1.388-3.7 1.305-5.121-0.1152-1.373-1.373-4.827-0.2521-4.827 1.567 0 0.7118-0.9948 2.146-2.211 3.187-6.753 5.782-0.9953 6.202 18.24 1.331zm-408.4-3.22c0-0.268-0.4974-0.7948-1.105-1.17-0.6079-0.3757-1.105-0.1564-1.105 0.4874 0 0.6437 0.4974 1.17 1.105 1.17s1.105-0.2193 1.105-0.4874zm390.7-0.595c1.177-1.904-1.623-5.549-4.262-5.549-3.651 0-4.173 1.019-2.03 3.968 1.947 2.68 5.119 3.478 6.291 1.581zm-607.6-6.378c-0.2048-1.064-1.105-1.934-2-1.934-0.8952 0-1.795 0.8704-2 1.934-0.2614 1.357 0.3354 1.934 2 1.934 1.665 0 2.262-0.5772 2-1.934zm613.3-1.589c-0.3528-0.8817-0.6148-0.6198-0.6678 0.6678-0.0475 1.165 0.2133 1.818 0.5806 1.451 0.3673-0.3673 0.4065-1.321 0.0873-2.118zm-16.23-3.109c0-0.6079-0.7755-1.105-1.723-1.105-0.9478 0-1.416 0.4974-1.04 1.105 0.3757 0.6079 1.151 1.105 1.723 1.105 0.5721 0 1.04-0.4974 1.04-1.105zm-11.05-15.98c28.07-4.705 45.83-10.25 69.47-21.67 15.9-7.681 19.27-8.729 20.68-6.438 0.7283 1.178 9.338 0.6477 13.14-0.8095 1.262-0.4844 1.537 0.5764 1.368 5.282-0.1186 3.301 0.2741 5.912 0.8937 5.943 3.865 0.1932 9.395 3.11 9.395 4.955 0 1.133 0.5054 2.372 1.123 2.754 0.6178 0.3818 0.8994 1.057 0.6256 1.5-1.786 2.889 1.594 3.631 5.599 1.229 13.58-8.147 35.75-28.88 31.72-29.67-1.125-0.2223-2.411-0.9683-2.858-1.658-0.5755-0.8885-0.8169-0.84-0.829 0.1668-0.0122 1.061-0.5574 1.131-2.155 0.2763-1.176-0.6294-3.43-1.144-5.008-1.144-1.579 0-3.156-0.7425-3.504-1.65-0.4287-1.117-1.488-1.435-3.281-0.9855-1.461 0.3666-2.648 0.1731-2.648-0.4316 0-0.6028-0.9419-1.342-2.093-1.644-1.239-0.3241-2.402-1.955-2.851-3.997-0.4168-1.898-1.387-3.45-2.157-3.45-6.864 0-5.827-6.193 2.684-16.03 3.157-3.647 8.423-10.42 11.7-15.06 8.102-11.45 7.805-11.27 14.62-8.68 3.15 1.197 5.851 2.121 6.002 2.053 0.9258-0.4151 9.67 2.86 9.67 3.622 0 0.5116-0.4974 0.9303-1.105 0.9303-0.6079 0-1.105 0.9948-1.105 2.211 0 1.216 0.6043 2.211 1.343 2.211 0.7385 0 2.355 0.9712 3.592 2.158 10.35 9.93 11.88 9.019 24.26-14.41 7.15-13.54 7.056-13.17 3.314-13.17-1.576 0-4.13-0.9948-5.675-2.211-2.92-2.297-5.323-2.97-4.217-1.182 0.3497 0.5659 0.1266 1.344-0.4959 1.728-1.279 0.7903-4.431-1.945-4.431-3.845 0-0.685-2.425-2.253-5.389-3.485-3.371-1.401-5.337-2.884-5.25-3.961 0.0906-1.13-1.76-2.364-5.388-3.59-6.748-2.282-7.126-3.813-4-16.19 1.209-4.789 2.988-12.92 3.951-18.07 2.148-11.48 1.791-11.16 10.54-9.538 4.996 0.9232 6.553 1.566 5.126 2.114-2.487 0.9542-0.8307 3.558 2.995 4.71 2.48 0.7464 8.903 3.363 11.78 4.8 0.9119 0.455 2.096 1.784 2.632 2.952 0.5357 1.169 3.644 3.303 6.908 4.744 3.558 1.57 5.934 3.316 5.934 4.361 0 3.951 2.181-0.9229 4.859-10.86 14.13-52.43 8.325-114.2-15.32-163-30.33-62.61-76.96-101.6-170.8-142.8-38.37-16.85-68.68-32.34-87.41-44.66-18.18-11.96-18.86-12.15-21.92-5.847-0.858 1.768-3.221 5.399-5.25 8.07-3.779 4.974-4.764 7.544-2.311 6.027 0.7586-0.4688 5.751-0.9669 11.09-1.107l9.714-0.2544 13.22 8.877c8.655 5.81 13.22 9.56 13.22 10.85 0 1.087 0.7237 2.577 1.608 3.311 1.271 1.055 1.338 1.768 0.3182 3.401-1.933 3.095-0.7726 3.538 11.85 4.523 12.91 1.008 15.84 2.025 40.01 13.9 16.44 8.077 19.39 10.83 16.45 15.32-0.9679 1.477-1.286 2.686-0.7079 2.686 4.306 0 5.687 6.351 1.486 6.835-4.546 0.5231-4.979 5.881-0.6252 7.736 1.712 0.7291 4.241 2.322 5.622 3.539 2.358 2.08 2.622 2.101 4.382 0.3417 1.759-1.759 1.729-1.872-0.4965-1.872-5.129 0-7.253-4.529-3.027-6.454 3.76-1.713 4.078-1.636 3.305 0.797-0.4166 1.313-0.0365 2.319 1.031 2.728 1.216 0.4666 1.691-0.0659 1.691-1.895 0-3.388 0.964-4.171 3.478-2.826 1.531 0.8195 2.232 0.7215 2.651-0.3705 0.733-1.91 7.992-1.956 8.722-0.0544 0.4255 1.109 1.16 1.152 3.267 0.1918 3.279-1.494 18.5 6.163 33.28 16.74 4.863 3.481 11.71 8.153 15.21 10.38 7.977 5.08 25.88 20.03 27.42 22.89 0.9875 1.845 0.62 2.363-2.644 3.727-2.085 0.8712-4.084 2.348-4.443 3.283-0.3587 0.9345-1.567 1.699-2.686 1.699-1.119 0-2.999 0.7735-4.18 1.719-2.06 1.651-2.047 1.671 0.3414 0.5138 2.648-1.283 3.825 1.231 1.306 2.788-0.6494 0.4013-0.9136 1.425-0.5874 2.276 0.4052 1.056-0.2346 1.546-2.017 1.546-1.436 0-2.894-0.7405-3.242-1.646-0.4936-1.286-1.259-1.407-3.506-0.5526-1.581 0.6011-4.294 1.093-6.029 1.093-1.735 0-4.811 0.8704-6.836 1.934-2.025 1.064-3.857 2.026-4.071 2.139-0.214 0.1127 5.874 6.44 13.53 14.06l13.92 13.86 3.88-2.289c2.134-1.259 3.88-2.938 3.88-3.73 0-0.7923 1.368-2.016 3.04-2.719 5.939-2.498 8.041-3.916 8.65-5.836 0.389-1.225 1.725-1.944 3.612-1.944 1.647 0 4.032-0.726 5.299-1.613 6.041-4.231 11.5-0.5495 21.87 14.76 11.08 16.35 14.42 24.11 10.3 23.97-1.395-0.0492-2.371 0.5024-2.223 1.256 0.3885 1.979-4.854 6.81-8.316 7.662-1.65 0.4063-4.206 1.52-5.679 2.475-2.22 1.438-2.766 1.475-3.187 0.2128-0.3751-1.125-0.987-0.8879-2.342 0.9089-1.541 2.043-2.94 2.437-8.741 2.465-7.982 0.0381-7.83-1.093-1.835 13.67 1.975 4.863 4.473 11.56 5.551 14.88 1.806 5.561 2.038 5.824 2.954 3.347 0.547-1.479 1.84-3.549 2.874-4.6 3.866-3.934 4.643-5.32 4.666-8.327 0.0177-2.335 1.113-3.857 4.503-6.256l4.479-3.17-3.021-3.153c-2.738-2.858-1.349-6.687 1.421-3.917 0.3738 0.3738 1.428 0.0622 2.343-0.6924 1.325-1.093 1.758-1.091 2.128 0.01 0.543 1.613 4.538 1.801 6.875 0.3226 1.019-0.6447 2.128-0.6045 2.986 0.1082 0.751 0.6234 2.387 0.8092 3.636 0.4129 9.521-3.022 28.04 96.94 20.87 112.7-1.521 3.338-3.18 3.765-2.353 0.6047 0.4102-1.569 0.0343-2.211-1.297-2.211-1.508 0-1.732 0.6487-1.146 3.316 0.452 2.057 0.2835 3.316-0.4438 3.316-1.161 0-1.966-2.422-2.563-7.719-0.2811-2.493-0.728-2.715-4.868-2.412-3.771 0.2754-4.935-0.146-6.738-2.438-2.01-2.556-2.319-2.632-3.973-0.9774-1.614 1.614-1.991 1.624-3.762 0.101-1.083-0.9308-2.963-2.107-4.179-2.614-1.837-0.7661-1.464-1.04 2.211-1.622l4.421-0.7002-3.106-1.307c-1.708-0.7189-2.843-1.732-2.522-2.252 0.9147-1.48-2.103-4.918-4.66-5.308-1.271-0.194-2.601 0.116-2.955 0.6889-0.7525 1.217-3.889 0.2571-3.889-1.191 0-0.5429 0.9948-0.987 2.211-0.987s2.211-0.6466 2.211-1.437c0-2.458-2.5-4.09-6.266-4.09-3.422 0-3.606-0.2058-3.468-3.873 0.2516-6.69-0.965-5.336-1.721 1.915-10.55 101.2-71.64 170.6-164.8 187.1-25.25 4.473-551.3 5.577-574.2 1.204-63.05-12.06-106-57.1-120-125.9-3.442-16.86-4.658-17.28-4.785-1.656l-0.07737 9.593-6.079 1.767c-3.645 1.06-6.079 2.389-6.079 3.32 0 0.8539-0.9948 1.868-2.211 2.254-1.216 0.3858-2.211 1.629-2.211 2.762 0 2.14-5.829 7.067-6.988 5.907-1.227-1.227-7.278-1.439-7.994-0.281-0.4524 0.732-1.474 0.4589-2.812-0.7512-2.438-2.206-3.16 0.256-0.7745 2.641 1.763 1.763-6.017 1.851-9.281 0.105-2.173-1.163-2.245-1.016-1.506 3.04 2.717 14.91 17.2 47.79 17.2 39.05 0-0.6229 1.246-1.606 2.769-2.185 1.523-0.579 3.605-2.805 4.626-4.946 1.29-2.706 2.596-3.894 4.28-3.894 1.333 0 3.042-0.7461 3.799-1.658 0.7568-0.9119 1.984-1.658 2.727-1.658 2.12 0 5.131-3.924 4.424-5.766-0.4844-1.263 0.5096-1.853 4.118-2.446 9.334-1.534 8.579-2.066 13.67 9.639 2.588 5.952 6.74 14.25 9.226 18.43 5.733 9.65 5.695 10.15-1.27 16.66-6.749 6.303-5.757 9.455 2.38 7.563 5.396-1.255 5.62-1.223 5.62 0.7873 0 0.9688-0.9604 2.013-2.134 2.32-1.174 0.3069-2.402 1.255-2.728 2.107-0.7772 2.025-3.878 1.994-4.661-0.0464-0.8056-2.099-9.148-1.915-11.71 0.2583-1.041 0.8829-2.722 1.287-3.735 0.8987-1.95-0.7483-9.294 1.442-9.294 2.772 0 6.086 36.58 38.96 38.85 34.91 0.5778-1.033 1.772-1.877 2.654-1.877 2.092 0 2.059-2.667-0.0553-4.421-0.9119-0.7568-1.658-2.23-1.658-3.274 0-1.044-1.243-2.464-2.763-3.157-1.52-0.6925-2.763-1.767-2.763-2.388s-0.7503-1.129-1.667-1.129c-1.367 0-1.429-0.3819-0.3428-2.121 1.788-2.863-0.4982-5.616-4.665-5.616-3.508 0-4.719-2.028-2.522-4.224 0.8144-0.8143 1.198-1.938 0.8526-2.497-0.3454-0.5589 0.1203-1.016 1.035-1.016 0.9146 0 2.312 1.313 3.105 2.917 0.793 1.604 1.815 2.848 2.271 2.763 0.4559-0.084 1.853-0.1535 3.105-0.1535 1.252 0 1.981-0.4772 1.62-1.06-0.3604-0.5833-0.0166-2.2 0.7638-3.592 0.7805-1.393 1.485-2.681 1.566-2.864 0.0807-0.1825 1.822 1.24 3.868 3.161 2.575 2.417 2.955 3.103 1.234 2.227-2.288-1.164-2.485-1.02-2.46 1.813 0.0354 4.002 7.39 8.348 9.065 5.356 0.7644-1.366 1.453-1.484 3.202-0.5473 1.226 0.656 6.037 1.232 10.69 1.28 8.055 0.084 9.076 0.3989 21.16 6.54 17.02 8.647 38.61 15.7 53.67 17.53 13.95 1.694 547.4 1.21 557.6-0.5059zm-669.8-21.66c0-0.6438 0.4974-0.8631 1.105-0.4874 0.6079 0.3757 1.105 0.9025 1.105 1.17 0 0.2681-0.4974 0.4874-1.105 0.4874-0.6079 0-1.105-0.5268-1.105-1.17zm788.1-0.932c0-0.5484-1.492-1.517-3.316-2.153-3.663-1.277-4.28-2.875-1.518-3.935 2.073-0.7952 4.834 1.119 4.834 3.352 0 0.8375 0.4974 1.523 1.105 1.523 0.6079 0 1.105 0.4974 1.105 1.105 0 0.6079-0.4974 1.105-1.105 1.105-0.6079 0-1.105-0.4487-1.105-0.9972zm0.4763-5.758c-0.7802-1.262 1.315-3.145 3.533-3.175 0.6854-0.0111 1.865-0.763 2.622-1.675 1.494-1.8 8.842-2.314 8.842-0.6178 0 1.338-2.19 2.684-4.662 2.867-1.066 0.0785-2.854 0.9724-3.975 1.987-2.343 2.12-5.256 2.402-6.361 0.615zm-802.9-8.784c0-0.6438 0.4974-0.8631 1.105-0.4874s1.105 0.9025 1.105 1.17c0 0.2681-0.4974 0.4874-1.105 0.4874s-1.105-0.5268-1.105-1.17zm857.7-45.25c0-0.6079 0.4974-1.105 1.105-1.105 0.6079 0 1.105 0.4974 1.105 1.105 0 0.6079-0.4974 1.105-1.105 1.105-0.6079 0-1.105-0.4974-1.105-1.105zm-880.9-12.22c0-0.6438 0.4974-0.8631 1.105-0.4874 0.6079 0.3757 1.105 0.9025 1.105 1.17 0 0.2681-0.4974 0.4874-1.105 0.4874s-1.105-0.5268-1.105-1.17zm878.7-2.684c-2.109-2.541-0.5058-4.988 3.269-4.988 2.241 0 3.351-0.5488 3.351-1.658 0-2.503 1.503-1.974 2.889 1.016 1.496 3.228 0.7825 4.563-3.26 6.099-4.032 1.533-4.624 1.488-6.249-0.4694zm-879.7-2.49c-1.066-2.341-1.041-2.654 0.135-1.698 0.7934 0.6448 2.33 1.35 3.414 1.568 1.846 0.37 1.837 0.4784-0.1348 1.698-1.811 1.12-2.29 0.8997-3.414-1.568zm880.3-7.948c-0.3497-0.5659-0.1753-1.314 0.3876-1.661 1.307-0.8076 4.539 0.4053 4.539 1.703 0 1.308-4.114 1.273-4.927-0.042zm10.45-2.352c0-0.6438 0.4974-0.8631 1.105-0.4874 0.6079 0.3757 1.105 0.9025 1.105 1.17 0 0.2681-0.4974 0.4874-1.105 0.4874-0.6079 0-1.105-0.5268-1.105-1.17zm8.29-73.99c0.3757-0.6079 1.151-1.105 1.723-1.105 0.5721 0 1.04 0.4974 1.04 1.105 0 0.6079-0.7755 1.105-1.723 1.105-0.9478 0-1.416-0.4974-1.04-1.105zm-56.47-159.3c-1.07-1.731 1.858-3.152 5.067-2.459 4.886 1.056 5.69 1.48 4.979 2.631-0.4372 0.7074-1.367 0.7514-2.499 0.1181-1.038-0.5808-2.866-0.6045-4.308-0.0559-1.595 0.6064-2.772 0.5213-3.239-0.2339zm2.037-6.093c-0.7599-0.3066-1.382-1.048-1.382-1.648 0-1.555 4.709-0.6611 5.256 0.9979 0.4576 1.389-1.307 1.685-3.874 0.6496zm-5.803-5.9c0-0.6079 0.4974-1.105 1.105-1.105 0.6079 0 1.105 0.4974 1.105 1.105 0 0.6079-0.4974 1.105-1.105 1.105-0.6079 0-1.105-0.4974-1.105-1.105zm-659.9 314.9c0-0.6585-4.402-6.254-9.783-12.43-52.19-59.95-67.73-123.9-40.9-168.3 15.03-24.89 47.29-41.15 76.66-38.62 4.863 0.4177 10.09 0.8514 11.61 0.9639l2.763 0.2045 0.6449-13.82c0.7893-16.91 0.8235-16.84-9.752-20.32-99.37-32.78-194.7 69.34-158.4 169.7 15.45 42.68 52.25 74.22 95.8 82.09 10.62 1.919 31.33 2.294 31.33 0.5676zm663.9-6.747c-0.3528-0.8817-0.6148-0.6198-0.6678 0.6678-0.0475 1.165 0.2133 1.818 0.5806 1.451 0.3673-0.3673 0.4065-1.321 0.0873-2.118zm-91.02-6.505c93.14-37.04 133.1-153.9 81.46-238.1-21.92-35.75-54.95-61.08-115.3-88.43-36.93-16.73-45.49-20.67-51.83-23.87-8.275-4.174-8.449-3.5-3.242 12.54 11.02 33.95 16.96 69.31 18.83 112.2 1.041 23.8-0.1753 21.67 11.5 20.12 25.35-3.374 50.04 5.022 68.24 23.2 41.74 41.71 30.99 113.4-27.31 182-8.073 9.504-5.459 9.556 17.68 0.3532zm-282.8-34.75c26.77-4.668 56.55-22.9 63.13-38.63 10.45-25 17.94-128.2 10.96-150.9-26.79-87.07-140.3-95.25-178.5-12.84-11.06 23.9-9.688 94.74 2.92 151 3.477 15.52 4.005 16.55 12.76 24.94 23.11 22.17 56.36 32.08 88.71 26.43zm-499.2-44.47c-1.456-13.87 0.1373-26.8 3.301-26.8 1.363 0 1.492-0.312 0.5299-1.275-0.8658-0.8659-0.9306-1.917-0.202-3.279 0.5899-1.102 0.7347-4.116 0.3219-6.698-0.5945-3.718-0.9272-4.243-1.599-2.524-1.34 3.427-1.156-0.0674 0.6143-11.65 1.468-9.604 4.564-22.11 5.474-22.11 0.2062 0 2.052 0.6814 4.102 1.514 3.823 1.553 5.161 1.454 9.602-0.7151 1.993-0.9732 2.76-0.9239 3.469 0.2224 0.5004 0.8097 1.428 1.152 2.062 0.7598 1.587-0.9809 2.922 1.465 1.549 2.838-0.745 0.745-1.907 0.6856-3.524-0.18-2.087-1.117-2.379-1.019-2.159 0.7266 0.1394 1.11-0.1273 2.895-0.5927 3.966-0.4953 1.14-0.2804 2.63 0.5181 3.592 2.068 2.492 3.191 1.978 2.96-1.352-0.2827-4.071 3.118-4.84 4.1-0.9276 0.4326 1.724 1.485 2.818 2.71 2.818 1.102 0 2.668 1.243 3.482 2.763 1.451 2.712 3.037 3.198 9.119 2.797 2.479-0.1635 3.056 0.2732 3.131 2.37 0.04974 1.414 1.284-2.566 2.742-8.844 2.305-9.924 5.923-23.08 7.919-28.79 0.5094-1.458 0.3482-1.535-0.8624-0.4116-2.027 1.881-3.326 1.74-2.552-0.2763 0.4603-1.2-0.1231-1.658-2.11-1.658-1.511 0-4.544-0.7513-6.742-1.67l-3.996-1.67-5.165 6.65c-4.992 6.428-5.249 6.595-7.706 4.985-1.398-0.9158-3.346-1.665-4.33-1.665-3.255 0-0.9496-2.715 2.547-2.998 3.154-0.2557 9.112-4.425 9.112-6.376 0-0.4571-1.093-0.5452-2.429-0.1958-3.26 0.8526-5.8-1.215-4.063-3.308 0.9778-1.178 0.8534-1.994-0.539-3.533-2.265-2.503-2.351-5.695-0.1525-5.695 0.9119 0 1.658-0.4974 1.658-1.105 0-0.6079-1.475-1.105-3.277-1.105-7.034 0-6.3-4.603 3.378-21.17 6.6-11.3 12.76-17.8 15.49-16.34 1.151 0.6159 2.092 0.8756 2.092 0.5772 0-0.2984 1.96 0.1491 4.356 0.9943 2.396 0.8452 5.901 1.493 7.788 1.439 1.888-0.0537 3.963 0.4328 4.611 1.081 1.659 1.659 0.03095 3.796-2.324 3.049-2.71-0.8602-5.547 2.499-3.308 3.916 0.8727 0.5523 2.489 1.012 3.592 1.021 1.103 9e-3 3.261 1.509 4.796 3.333 1.534 1.824 3.328 3.316 3.986 3.316s2.035 0.7587 3.059 1.686c1.702 1.54 2.328 1.135 7.242-4.697 2.958-3.511 8.55-9.708 12.43-13.77 4.035-4.229 6.72-7.919 6.28-8.631-0.8307-1.344-6.977-0.496-8.792 1.213-0.5775 0.5439-2.528 0.9888-4.334 0.9888-1.806 0-4.188 0.8178-5.292 1.817-1.104 0.9995-4.128 1.956-6.719 2.126-2.591 0.1698-5.048 0.3468-5.461 0.3933-0.4125 0.0465-1.555 0.8898-2.539 1.874-0.9843 0.9842-2.044 1.535-2.354 1.225-0.8528-0.8528 2.608-8.541 3.845-8.541 0.5923 0 2.652-1.325 4.577-2.945 3.525-2.966 5.447-2.419 5.495 1.563 0.021 1.736 4.036 1.821 5.094 0.1086 0.7327-1.186-1.591-3.614-4.405-4.605-0.7841-0.2759-0.549-1.194 0.6534-2.552 2.157-2.436 0.9924-5.536-1.693-4.505-1.233 0.4734-1.898-0.3108-2.437-2.878-0.4081-1.941-1.925-4.575-3.372-5.853l-2.63-2.324 3.574-3.981c8.853-9.861 32.23-23.72 34.17-20.26 0.5562 0.9939 1.818 1.807 2.804 1.807 0.9858 0 2.692 0.8138 3.791 1.808 1.85 1.674 2.05 1.674 2.692 0 0.9735-2.537 2.012-2.283 6.162 1.507 5.58 5.096 8.499 4.336 4.243-1.105-3.084-3.942-2.723-5.953 1.341-7.488 2.984-1.126 3.702-1.073 4.489 0.3336 0.5153 0.9209 1.404 1.386 1.974 1.033 1.647-1.018 1.203-7.839-0.6084-9.343-3.27-2.714 1.567-5.255 18.09-9.503 16.23-4.171 30.2-3.33 34.54 2.079l1.795 2.239 3.861-2.387c2.124-1.313 4.922-2.387 6.218-2.387 1.296 0 2.356-0.4974 2.356-1.105 0-2.051 3.518-1.124 4.094 1.079 0.4204 1.608 1.049 1.939 2.383 1.255 0.9967-0.5112 2.451-0.701 3.231-0.4217 0.7803 0.2793 2.126-0.0795 2.991-0.7972 0.8648-0.7177 2.086-0.9876 2.713-0.5997 0.6807 0.4207 0.8755 0.0131 0.4829-1.01-1.159-3.02 13.02-1.809 27.53 2.351 6.34 1.819 6.927 4.374 0.7054 3.071-1.566-0.328-4.257-0.0603-5.98 0.5948l-3.133 1.191 3.676 3.793c3.2 3.302 3.427 3.888 1.754 4.531-1.403 0.5382-1.738 1.473-1.24 3.457 0.3754 1.496 0.153 3.357-0.4942 4.137-1.682 2.027 0.1954 6.271 4.302 9.727 2.528 2.128 3.411 3.804 3.411 6.478 0 7.712 2.007 0.7738 4.804-16.61 1.603-9.962 3.379-18.67 3.946-19.36 1.124-1.354 4.585-15.33 3.953-15.96-0.2138-0.2137-3.781-1.279-7.928-2.367-105.8-27.78-214.8 32.27-250 137.8-11.63 34.82-14.57 92.02-5.585 108.8 1.707 3.19 1.764 2.731 0.7972-6.479zm33.06-65.74c-1.101-1.152-1.822-2.934-1.602-3.961 0.2929-1.367 0.9245-0.8774 2.36 1.829 2.297 4.329 2.038 5.056-0.7577 2.132zm-2.24-8.542c-1.45-0.5212-1.466-0.8827-0.1143-2.723 1.51-2.056 1.627-2.059 3.786-0.105 3.68 3.33 1.786 4.789-3.672 2.828zm5.01-6.907c-1.78-1.78-1.664-3.089 0.2726-3.089 2.054 0 2.904 1.405 1.865 3.086-0.6337 1.025-1.114 1.026-2.138 2e-3zm38.47-63.42c0-0.9625 0.5907-1.553 1.313-1.313 2.049 0.6832 2.389 3.063 0.4375 3.063-0.9625 0-1.75-0.7875-1.75-1.75zm873.2 94.11c0-1.167-2.121-1.657-2.752-0.6359-0.3819 0.6178 0.0807 1.123 1.029 1.123 0.9477 0 1.723-0.2193 1.723-0.4874zm-779.2-136.6c10.62-2.968 11.09-3.209 5.565-2.829-5.531 0.3806-9.51-0.672-11.2-2.962-0.9562-1.299-6.604 0.3602-7.287 2.141-0.3199 0.8336-1.677 1.516-3.015 1.516-3.183 0-6.725-2.632-5.723-4.253 1.05-1.699 4.751-1.626 5.451 0.1086 0.381 0.944 0.5841 0.8565 0.6416-0.2763 0.0984-1.936-6.04-6.28-7.98-5.647-0.7285 0.2378-2.66 0.3568-4.291 0.2643-3.648-0.2068-4.953 1.53-2.306 3.07 1.077 0.6268 1.431 1.155 0.7871 1.173-0.6436 0.0185-2.136 0.8203-3.316 1.782-1.744 1.421-1.794 1.638-0.2679 1.162 4.655-1.454 10.59 4.487 7.642 7.646-0.5396 0.5775-1.313 2.149-1.718 3.491l-0.7369 2.441 8.073-2.791c4.44-1.535 13.3-4.251 19.68-6.036zm-9.948-0.7098c0-0.6348 0.8704-1.837 1.934-2.671 1.789-1.403 1.813-1.351 0.3128 0.6936-0.8918 1.216-1.762 2.418-1.934 2.671-0.1721 0.2533-0.3128-0.0588-0.3128-0.6936zm-14.92-12.48c0.3757-0.6079 0.1564-1.105-0.4874-1.105-0.6437 0-1.17 0.4974-1.17 1.105s0.2193 1.105 0.4874 1.105c0.268 0 0.7948-0.4974 1.17-1.105zm655.4-52.4c-1.173-0.858-2.565-1.293-3.092-0.9671-1.158 0.7156 1.405 2.486 3.633 2.51 1.125 0.0119 0.9665-0.4411-0.5404-1.543zm7.79-0.6507c-0.3757-0.6079-1.429-1.105-2.341-1.105-0.9119 0-1.351 0.4974-0.9749 1.105 0.3757 0.6079 1.429 1.105 2.341 1.105 0.9118 0 1.351-0.4974 0.9748-1.105zm-20-5.346c-1.199-1.117-3.655-2.374-5.459-2.794-3.01-0.7011-2.916-0.5431 1.142 1.926 5.336 3.247 7.292 3.64 4.316 0.8679zm18.04 1.363c-0.3673-0.3673-1.321-0.4065-2.118-0.0872-0.8817 0.3528-0.6198 0.6147 0.6678 0.6678 1.165 0.048 1.818-0.2132 1.451-0.5805zm-20.15-5.964c-0.3757-0.6079-1.18-1.105-1.788-1.105-0.6079 0-0.7979 0.4974-0.4222 1.105 0.3757 0.6079 1.18 1.105 1.788 1.105s0.7979-0.4974 0.4222-1.105zm-18.94-6.064c-0.413-1.076 0.3611-2.02 2.245-2.736 5.751-2.186 3.236-4.079-5.138-3.867-6.025 0.1524-6.779-1.46-4.474-9.563 0.3218-1.131-0.3336-2.002-1.793-2.383-1.265-0.3308-2.3-0.1212-2.3 0.4657s-0.451 0.7883-1.002 0.4476-0.7568 0.5004-0.4568 1.869c0.3447 1.573 0.1942 2.001-0.4091 1.164-0.5716-0.7929-2.412-1.094-4.587-0.7516-1.998 0.3148-4.31 0.01-5.138-0.6775-0.8283-0.6875-2.165-1.126-2.97-0.9741-0.805 0.1517-2.956-0.0681-4.779-0.4884-11.28-2.599-10.1 1.118 2.211 6.972 21.96 10.44 29.65 13.27 28.59 10.52zm-0.4056-22.12c1.494-1.8 1.136-2.025-1.568-0.987-0.9616 0.369-1.748 1.115-1.748 1.658 0 1.529 1.791 1.167 3.316-0.6709zm4.209-8.372c-0.2177-0.6535-0.8685-1.188-1.446-1.188s-1.228 0.5347-1.446 1.188c-0.2178 0.6535 0.4328 1.188 1.446 1.188s1.664-0.5347 1.446-1.188zm-84.5-7.101c-0.3499-0.9119-1.022-1.658-1.494-1.658-0.472 0-1.118-0.9948-1.436-2.211-0.318-1.216-0.1739-2.211 0.3202-2.211s0.6382-0.9948 0.3202-2.211c-0.3179-1.216-1.057-2.211-1.642-2.211-0.5891 0-0.7624-1.374-0.3882-3.078 0.7014-3.194-2.278-4.213-5.855-2.002-0.7665 0.4737-2.617 0.0349-4.185-0.9921-4.035-2.644-4.029-1.906 0.0542 6.1 3.845 7.54 16.83 17.04 14.31 10.47zm-176.9-4.5c74.21-12.79 117.3-84.51 86.91-144.6-6.933-13.69-5.915-17.79 6.902-27.75 55.32-42.99 36.81-135.1-29.94-148.9-27.91-5.791-50.04 1.318-71.63 23.02-18.67 18.76-19.74 18.9-33.15 4.135-18.83-20.74-41.1-30.5-65.63-28.76-74.43 5.283-99.98 103.5-39.48 151.8 12.35 9.86 12.86 12.22 5.892 27-25.15 53.34 2.927 114.9 62.64 137.4 24.02 9.039 50.36 11.29 77.48 6.616zm-49.91-53.08c-38.98-6.537-75.44-33.9-63.73-47.81 6.256-7.434 11.87-7.083 21.54 1.349 36.64 31.96 94.25 31.94 131.1-0.039 7.968-6.909 11.51-7.951 16.95-4.985 15.36 8.375 6.506 23.39-23.45 39.78-22.38 12.24-53.19 16.62-82.44 11.71zm-0.5216-88.98c-1.082-0.6295-3.195-3.091-4.697-5.47-1.502-2.379-4.673-5.317-7.048-6.528-11.13-5.677-12.03-17.76-1.697-22.67 9.94-4.717 30.33 12.64 30.33 25.81 0 7.479-10.13 12.79-16.89 8.854zm34.18-1.499c-10.67-9.885 7.862-34.93 25.07-33.89 7.979 0.4834 11.27 13.28 4.889 19.01-4.711 4.23-12.5 11.97-15.19 15.1-3.089 3.59-10.78 3.474-14.77-0.2236zm-93.77-54.06c-31.33-8.689-28.03-55.88 4.191-59.9 16.76-2.094 32.1 10.88 33.34 28.2 1.464 20.46-18.19 37.06-37.53 31.7zm153.1 0.3721c-27.31-5.54-33.27-41.5-9.276-56 20.49-12.38 44.71 2.114 44.68 26.74-0.0221 19.21-16.76 33.04-35.4 29.26zm153 174.4c-0.5414-1.649-6.362-2.558-6.362-0.9945 0 1.259 1.895 2.164 4.79 2.289 1.151 0.0495 1.83-0.5097 1.573-1.294zm190.6-105.7c-0.8118-0.5146-1.434-1.253-1.382-1.641 0.6432-4.806 0.2259-5.127-6.673-5.127-7.642 0-7.627 1.491 0.0564 5.552 3.909 2.066 11.05 3.152 7.998 1.215zm26.54-7.596c3.134-3.375 10.85-14.72 10.85-15.95 0-2.209-5.286-6.436-5.935-4.745-0.7802 2.033-4.687 0.4566-7.025-2.835-0.9997-1.408-2.847-1.885-7.043-1.822-4.421 0.0667-6.038-0.3925-7.258-2.062-0.8636-1.181-2.164-2.147-2.889-2.147-0.7253 0-1.508-0.9824-1.739-2.183-0.5012-2.603-3.281-4.917-5.965-4.966-1.064-0.0193-1.934-0.6915-1.934-1.494 0-0.8022-1.243-2.54-2.763-3.861s-2.763-2.95-2.763-3.62c0-2.374-8.112 8.488-11.22 15.02-3.543 7.455-4.281 14.18-1.436 13.09 0.9446-0.3625 3.622 0.1999 5.95 1.25 4 1.804 4.392 1.804 7.125 0.0139 2.656-1.74 3.421-1.5 2.991 0.9414-0.0895 0.5083 0.8604 1.192 2.111 1.519 1.626 0.4251 2.086 1.185 1.615 2.668-0.4526 1.426-0.117 2.074 1.074 2.074 0.9529 0 1.732-0.4974 1.732-1.105 0-0.6079 0.9948-1.105 2.211-1.105 1.265 0 2.211 0.7368 2.211 1.723 0 0.9477-0.463 1.437-1.029 1.087-0.5659-0.3498-1.316-0.1709-1.668 0.3975-0.3513 0.5684 0.8578 1.362 2.687 1.764 2.337 0.5133 3.325 1.384 3.325 2.928 0 1.69 0.5074 2.036 2.197 1.5 2.188-0.6943 8.855 2.395 8.855 4.103 0 1.87 3.043 0.7153 5.725-2.173zm-13.3-16.73c-2.338-1.482 0.5066-2.645 3.088-1.264 1.783 0.9543 2.414 0.7464 3.416-1.126 0.9877-1.846 1.541-2.037 2.822-0.9738 3.323 2.758-5.347 5.884-9.326 3.363zm-652.7-3.758c0.206-0.206-0.5762-6.853-1.738-14.77-4.136-28.18-3.924-58.91 0.5841-84.89 1.972-11.36 1.361-12.65-6.102-12.87-15.56-0.4632-22.82 4.288-29.93 19.59-11.19 24.09-30.27 12.78-19.98-11.84 10.19-24.39 34.28-37.19 57.1-30.32 2.971 0.8942 5.742 1.267 6.157 0.829 1.145-1.209 8.92-22.49 8.405-23-1.836-1.836-19.2-4.876-27.85-4.876-74.26 0-96.56 115.2-29.88 154.3 11.9 6.973 39.16 11.95 43.22 7.897zm481.2-1.914c70.03-20.41 71.33-136.6 1.76-158.3-13.33-4.156-41.96-2.012-45.3 3.393-1.064 1.722 7.778 22.88 9.392 22.47 17.54-4.41 25.63-3.924 37.91 2.273 18.94 9.561 34.44 39.56 24.99 48.38-7.648 7.144-15.45 3.777-20.38-8.798-5.541-14.12-13.42-19.89-27.23-19.91-10.75-0.016-11.28 0.6676-9.407 12.15 4.414 27.03 4.838 57.39 1.18 84.55-2.206 16.38-2.274 15.8 1.937 16.36 6.091 0.8035 17.61-0.3734 25.15-2.569zm218.1-33.69c11.46-22.8 14.77-62.23 7.972-94.77-30.5-145.9-201.2-203.2-323.3-108.5-1.347 1.045-0.843 2.114 3.128 6.632 5.792 6.589 8.004 7.581 10.47 4.697 5.118-5.978 24.35-16.44 30.21-16.44 1.465 0 2.394-0.4367 2.064-0.9704-2.456-3.974 20.94-13.07 37.5-14.57 14.15-1.288 14.42-1.345 16.9-3.587 11.23-10.17 85.29-1.003 107 13.24 3.215 2.107 3.427 4.782 0.3797 4.782-1.235 0-2.532 0.7461-2.881 1.658-0.3499 0.9119-1.522 1.658-2.606 1.658-1.083 0-1.946 0.6217-1.918 1.382 0.1378 3.711-0.4453 5.25-1.99 5.25-0.9309 0-1.979 0.7461-2.329 1.658-0.3499 0.9119-1.645 1.658-2.878 1.658-1.233 0-3.416 1.266-4.85 2.814-2.126 2.293-3.274 2.69-6.206 2.145-3.178-0.5912-12.9 2.142-11.73 3.299 0.2177 0.2155 4.375 1.961 9.238 3.879 4.863 1.918 13.92 6.189 20.13 9.491 12.42 6.603 12.71 6.71 12.25 4.407-0.1786-0.878 0.6087-2.285 1.749-3.127 1.747-1.289 1.866-1.919 0.7559-3.994-1.27-2.373-1.178-2.437 2.497-1.747 5.374 1.008 6.068-1.076 1.713-5.144-3.229-3.016-3.42-3.506-1.733-4.45 2.305-1.29 4.455-0.1745 3.659 1.899-0.6974 1.818 1.09 3.195 2.076 1.6 0.3819-0.6178 2.903-1.123 5.603-1.123 2.7 0 4.909-0.4974 4.909-1.105 0-0.6079 1.774-1.105 3.941-1.105 2.168 0 4.846-0.4845 5.953-1.077 2.777-1.486 8.1 2.557 20.37 15.47 14.64 15.42 15.96 18.04 10.28 20.41-2.019 0.8435-6.352 4.051-9.629 7.128-5.903 5.542-8.317 6.483-11.92 4.643-1.198-0.6122-3.303-0.3001-5.908 0.8762l-4.046 1.827 5.91 9.244c3.251 5.084 8.259 14.62 11.13 21.19 4.557 10.42 7.775 14.62 6.831 8.906-0.1955-1.184 0.3914-1.796 1.629-1.697 1.064 0.0845 1.934-0.2886 1.934-0.829s1.211-0.9825 2.691-0.9825c4.299 0 8.358-1.99 8.398-4.117 0.0508-2.695 3.399-6.474 6.652-7.506 1.484-0.4708 3.197-1.47 3.807-2.221 5.766-7.091 11.76 2.238 17.08 26.58l2.069 9.467-2.661 2.871c-2.73 2.945-1.534 5.729 2.507 5.837 2.245 0.0603 4.163 10.56 5.455 29.87l0.7757 11.6-4.321-3.814c-2.377-2.097-5.192-4.568-6.256-5.489-1.064-0.9214-1.934-2.449-1.934-3.394 0-0.9454-0.7904-2.848-1.757-4.227-0.966-1.379-1.479-3.231-1.14-4.114 0.3668-0.9559-0.0409-1.607-1.007-1.607-1.938 0-2.097-1.294-0.3712-3.021 2.95-2.95-1.577-5.59-5.465-3.187-0.7758 0.4795-2.113 0.2888-2.972-0.4238-0.8586-0.7126-2.037-1.001-2.619-0.6415s-1.723-0.8837-2.535-2.763c-1.342-3.104-1.832-3.361-5.345-2.803-2.128 0.338-4.834 0.7538-6.014 0.924-1.326 0.1913-2.64-0.6568-3.439-2.219-1.082-2.116-1.395-0.4028-1.922 10.5-0.5513 11.41-4.136 31.25-6.915 38.26-0.5574 1.406-0.3357 1.937 0.732 1.754 4.571-0.7848 11.15 2.663 10.13 5.312-0.859 2.239 2.523 4.733 6.417 4.733 1.723 0 3.275 0.7512 3.668 1.775 0.4712 1.228 1.482 1.574 3.279 1.123 3.112-0.7812 6.853 2.709 5.812 5.422-0.5292 1.379-0.185 1.614 1.554 1.062 1.979-0.628 2.167-0.3281 1.647 2.623-0.6232 3.537 1.045 5.601 2.97 3.676 1.327-1.327 8.608 1.675 8.608 3.549 0 2.418 3.321-2.514 8.112-12.05zm-19.08-56.46c0.0531-1.288 0.315-1.55 0.6678-0.6678 0.3193 0.7979 0.2801 1.751-0.0873 2.118-0.3673 0.3673-0.6286-0.2855-0.5806-1.451zm-85.67-123c-0.3843-0.6218-1.336-0.886-2.115-0.5872-0.7788 0.2988-2.332-0.469-3.452-1.706-1.962-2.168-1.963-2.25-0.0221-2.25 1.107 0 1.655-0.3581 1.218-0.7958-0.4377-0.4377-1.845-0.8107-3.127-0.829-1.282-0.0182-2.54-0.6549-2.796-1.415-0.3104-0.9215 0.7579-1.382 3.208-1.382h3.673l-3.028-2.808c-4.094-3.796-4.336-8.25-0.304-5.609 1.498 0.9818 3.546 1.785 4.55 1.785 1.351 0 1.688 0.7178 1.297 2.763-0.4053 2.121-0.0652 2.763 1.464 2.763 1.096 0 2.299 0.4974 2.675 1.105 0.3757 0.6079 0.0276 1.105-0.7741 1.105-2.886 0-4.716 4.626-2.477 6.263 1.092 0.7982 1.698 1.738 1.347 2.089-0.3506 0.3507-0.952 0.1288-1.336-0.4929zm1.686-15.48c-1.728-1.329-2.414-2.683-1.959-3.869 0.6422-1.673 0.8646-1.662 2.686 0.1349 1.362 1.344 3.121 6.518 1.972 5.803-0.0221-0.0135-1.236-0.9446-2.699-2.069zm82.19 119.5c0.3264-0.8384-0.3783-1.382-1.793-1.382-1.282 0-3.044-0.8704-3.916-1.934-0.872-1.064-1.226-1.241-0.7872-0.3934 0.4391 0.8475 0.7598 2.898 0.7126 4.557-0.0906 3.202 4.467 2.534 5.783-0.8475zm-237.5-97.84c8.48-5.1 18.37-9.531 30.33-13.59l9.395-3.189-7.184-0.9272c-3.951-0.51-8.094-1.421-9.205-2.025-1.389-0.7544-2.5-0.6994-3.555 0.1759-0.8438 0.7003-2.173 1.045-2.953 0.7655-0.7803-0.2793-2.289-0.0601-3.353 0.487-1.226 0.6304-1.934 0.5834-1.934-0.1283 0-0.6177 1.368-1.433 3.04-1.811 4.171-0.9438 9.119-3.063 9.119-3.905 0-0.9177-8.846-0.3977-11.37 0.6684-1.244 0.5254-2.681 0.1957-3.881-0.8905-1.728-1.564-2.496-1.551-8.246 0.1423-6.339 1.867-8.912 4.273-3.453 3.23 4.583-0.876 7.829 2.904 3.994 4.651-2.213 1.008-3.01 0.9752-3.713-0.1544-0.7215-1.159-1.329-1.17-3.125-0.0566-1.226 0.7599-3.688 1.382-5.47 1.382-4.355 0-6.737 1.019-6.737 2.881 0 1.892-1.859 2.042-2.473 0.1994-0.3339-1.002-2.19-0.8124-7.347 0.7491-6.756 2.046-6.974 2.046-10.42 0.01l-3.519-2.079 2.107 3.264c1.159 1.795 4.954 7.29 8.433 12.21 3.479 4.921 6.896 10.01 7.593 11.31 1.237 2.311 1.454 2.229 9.249-3.491 4.39-3.221 11-7.669 14.68-9.883zm2.622-27.19c0.6079-1.136 0.7902-2.38 0.405-2.766-0.7904-0.7904-4.748 2.458-4.748 3.897 0 1.773 3.241 0.9284 4.343-1.131zm-5.449-5.5c0-0.5137-0.9948-1.834-2.211-2.935-1.988-1.799-2.211-1.816-2.211-0.1713 0 1.006 0.5268 1.829 1.17 1.829 0.6438 0 0.8631 0.4974 0.4874 1.105-0.3757 0.6079 0.0917 1.105 1.04 1.105 0.9477 0 1.723-0.4203 1.723-0.934z" fill="#27bddd"/>
  <path d="m211.8 1002c-123.1-8.23-219.4-122-209.7-247.8 11.09-144.9 144.7-244.8 283.9-212.3 15.17 3.544 14.92 3.647 18.58-7.592 6.821-20.93 20.1-47.39 34.74-69.25l8.926-13.32-9.296-11.07c-17.09-20.36-30.25-42.28-39.87-66.44-4.197-10.54-4.864-11.58-7.27-11.29-79.69 9.342-136.5-72.86-104.9-151.8 20.19-50.43 70.12-72.19 123.9-54.02 1.214 0.4103 3.578-2.466 8.29-10.08 51.98-84.04 143.5-124.3 238.8-105 27.83 5.629 61.41 19.87 82.05 34.8 10.75 7.775 11.6 7.905 17.68 2.706 45.65-39.07 116.1-57.61 178.7-47.01 165.9 28.09 239.4 214.1 134.6 340.9-27.14 32.84-81.64 20.05-91.42-21.45-3.905-16.57 0.2013-31.61 13.71-50.2 20.56-28.3 26.16-54.41 18.26-85.17-17.09-66.51-97.96-102.8-162.1-72.74-10.79 5.066-10.48 5.461 4.918 6.22 92.78 4.569 125.4 137.9 47.82 195.1-18.67 13.76-42.4 20.64-62.53 18.14-10.14-1.264-9.479-1.842-15.88 13.89-2.774 6.823-6.326 14.94-7.893 18.03-1.567 3.093-2.563 6.463-2.214 7.489 2.294 6.739 48.9 33.6 84.58 48.74 138.8 58.9 202.3 125.2 220 229.4 26.18 154.4-76.14 293.5-234.9 319.1l-15.47 2.499-271.9 0.1645c-149.5 0.091-277.4-0.2013-284.1-0.6483zm571.4-25.09c105.9-17.59 184-89.1 209.9-192.1 8.186-32.55 7.927-82.35-0.6089-117.1-15.47-62.99-53.84-113.7-114.8-151.8-22.35-13.95-39.59-22.64-79.55-40.07-30.19-13.17-65.06-31.28-81.76-42.46l-16-10.71-2.791 3.289c-4.851 5.715-19.92 25.49-19.92 26.13 0 0.3415 3.249 5.314 7.221 11.05 3.971 5.736 10.06 15.81 13.54 22.38l6.319 11.95 25.97 12.94c14.29 7.119 35.67 17.26 47.53 22.54 61.6 27.43 89.89 46.02 117.6 77.25 72.54 81.89 53.25 213.5-40.59 276.8-23.99 16.19-49.32 26.05-81.78 31.85-12.55 2.24-536 3.605-558.5 1.456-74.89-7.139-131.9-71.49-132.3-149.3-0.4364-99.7 92.65-173.8 188.1-149.6 13.78 3.484 12.08 5.305 15.82-16.97 1.712-10.19 4.093-22.51 5.291-27.37 2.552-10.36 2.746-10.04-7.756-12.75-158.2-40.82-300.5 114.5-249.6 272.4 24.07 74.67 95.29 134 170.4 142 5.019 0.5334 133.8 0.8913 286.5 0.796l277.4-0.1732zm-543.2-78.88c0-0.6585-4.402-6.254-9.783-12.43-52.19-59.95-67.73-123.9-40.9-168.3 15.75-26.09 50.09-42.39 80.69-38.3 11.4 1.522 10.64 2.518 11.07-14.44 0.4233-16.45 0.7264-15.92-11.21-19.61-81.99-25.33-163.8 37.59-164 126.1-0.1554 71.33 53.49 127.5 122.3 128.1 7.854 0.0652 11.88-0.3067 11.88-1.098zm562.8-9.406c125-43.41 154.9-202.7 53.55-285.5-16.35-13.36-45.6-30.67-71.27-42.2-7.064-3.17-24.4-11.12-38.53-17.66-14.13-6.542-25.97-11.44-26.31-10.89s1.359 7.099 3.777 14.55c11.02 33.95 16.96 69.31 18.83 112.2 1.041 23.8-0.1753 21.67 11.5 20.12 25.35-3.374 50.04 5.022 68.24 23.2 41.74 41.71 30.99 113.4-27.31 182-7.856 9.249-7.531 9.43 7.532 4.198zm-272.7-38.6c26.77-4.668 56.55-22.9 63.13-38.63 10.45-25 17.94-128.2 10.96-150.9-26.79-87.07-140.3-95.25-178.5-12.84-11.06 23.9-9.688 94.74 2.92 151 3.477 15.52 4.005 16.55 12.76 24.94 23.11 22.17 56.36 32.08 88.71 26.43zm8.749-356c74.21-12.79 117.3-84.51 86.91-144.6-6.933-13.69-5.915-17.79 6.902-27.75 55.32-42.99 36.81-135.1-29.94-148.9-27.91-5.791-50.04 1.318-71.63 23.02-18.67 18.76-19.74 18.9-33.15 4.135-18.83-20.74-41.1-30.5-65.63-28.76-74.43 5.283-99.98 103.5-39.48 151.8 12.35 9.86 12.86 12.22 5.892 27-25.15 53.34 2.927 114.9 62.64 137.4 24.02 9.039 50.36 11.29 77.48 6.616zm-49.91-53.08c-38.98-6.537-75.44-33.9-63.73-47.81 6.256-7.434 11.87-7.083 21.54 1.349 36.64 31.96 94.25 31.94 131.1-0.039 7.968-6.909 11.51-7.951 16.95-4.985 15.36 8.375 6.506 23.39-23.45 39.78-22.38 12.24-53.19 16.62-82.44 11.71zm-0.5216-88.98c-1.082-0.6295-3.195-3.091-4.697-5.47-1.502-2.379-4.673-5.317-7.048-6.528-11.13-5.677-12.03-17.76-1.697-22.67 9.94-4.717 30.33 12.64 30.33 25.81 0 7.479-10.13 12.79-16.89 8.854zm34.18-1.499c-10.67-9.885 7.862-34.93 25.07-33.89 7.979 0.4834 11.27 13.28 4.889 19.01-4.711 4.23-12.5 11.97-15.19 15.1-3.089 3.59-10.78 3.474-14.77-0.2236zm-93.77-54.06c-31.33-8.689-28.03-55.88 4.191-59.9 16.76-2.094 32.1 10.88 33.34 28.2 1.464 20.46-18.19 37.06-37.53 31.7zm153.1 0.3721c-27.31-5.54-33.27-41.5-9.276-56 20.49-12.38 44.71 2.114 44.68 26.74-0.0221 19.21-16.76 33.04-35.4 29.26zm359.4 71.13c17.72-6.037 47.23-58.92 53.57-95.98 19.72-115.4-73.54-220.5-195.6-220.5-45.79 0-94.49 16.91-125.7 43.66-5.844 5.005-5.939 4.328 1.703 12.19 7.951 8.178 18.05 20.87 24.4 30.65 5.781 8.907 3.093 9.062 18.02-1.04 47.65-32.25 103.5-34.76 152.7-6.864 67.02 37.98 87.37 122.3 43.7 181.2-14.01 18.89-16.27 28.37-9.885 41.34 7.169 14.56 21.71 20.55 37.15 15.29zm-655.3-30.53c0.206-0.206-0.5762-6.853-1.738-14.77-4.136-28.18-3.924-58.91 0.5841-84.89 1.972-11.36 1.361-12.65-6.102-12.87-15.56-0.4632-22.82 4.288-29.93 19.59-11.19 24.09-30.27 12.78-19.98-11.84 10.19-24.39 34.28-37.19 57.1-30.32 2.971 0.8942 5.742 1.267 6.157 0.829 1.145-1.209 8.92-22.49 8.405-23-1.836-1.836-19.2-4.876-27.85-4.876-74.26 0-96.56 115.2-29.88 154.3 11.9 6.973 39.16 11.95 43.22 7.897zm481.2-1.914c70.03-20.41 71.33-136.6 1.76-158.3-13.33-4.156-41.96-2.012-45.3 3.393-1.064 1.722 7.778 22.88 9.392 22.47 17.54-4.41 25.63-3.924 37.91 2.273 18.94 9.561 34.44 39.56 24.99 48.38-7.648 7.144-15.45 3.777-20.38-8.798-5.541-14.12-13.42-19.89-27.23-19.91-10.75-0.016-11.28 0.6677-9.407 12.15 4.414 27.03 4.838 57.39 1.18 84.55-2.206 16.38-2.274 15.8 1.937 16.36 6.091 0.8035 17.61-0.3734 25.15-2.569z" fill="#c19068"/>
  <path d="m211.8 1002c-123.1-8.23-219.4-122-209.7-247.8 11.13-145.4 145.4-245.2 285.1-212 15.15 3.608 14.5 3.865 18.07-7.14 6.86-21.2 19.77-47.05 34.88-69.83 9.956-15.01 10.03-12.67-0.7672-25.43-16.45-19.46-28.98-40.04-38.08-62.58l-5.892-14.58-11.45 0.3721c-62.22 2.022-109.9-51.18-104.6-116.6 5.528-67.88 66.16-111.2 126.1-90.09 7.623 2.685 7.598 2.7 14.66-9.128 66.68-111.7 220.9-143.9 322.5-67.29 7.785 5.866 7.699 5.864 14.39 0.2269 47.32-39.9 116.3-58.16 179.3-47.48 165.9 28.09 239.4 214.1 134.6 340.9-27.14 32.84-81.64 20.05-91.42-21.45-3.905-16.57 0.2013-31.61 13.71-50.2 20.56-28.3 26.16-54.41 18.26-85.17-17.17-66.83-98.66-103.1-162.7-72.38-11.81 5.66-11.63 6.682 1.179 6.682 50.07 0 89.44 39.58 94.6 95.1 6.019 64.75-43.95 120.9-103.8 116.6-12.42-0.8808-11.22-1.774-17.05 12.66-2.331 5.775-5.902 13.84-7.936 17.93-4.733 9.512-5.076 8.394 4.867 15.88 17.11 12.88 50.74 31.1 80.41 43.57 134.7 56.63 199.7 124.9 217.2 228.2 26.18 154.4-76.14 293.5-234.9 319.1l-15.47 2.499-271.9 0.1645c-149.5 0.091-277.4-0.2013-284.1-0.6483zm571.4-25.09c105.9-17.59 184-89.1 209.9-192.1 8.186-32.55 7.927-82.35-0.6089-117.1-15.47-62.99-53.84-113.7-114.8-151.8-22.35-13.95-39.59-22.64-79.55-40.07-30.19-13.17-65.06-31.28-81.76-42.46l-16-10.71-2.791 3.289c-4.851 5.715-19.92 25.49-19.92 26.13 0 0.3415 3.249 5.314 7.221 11.05 3.971 5.736 10.06 15.81 13.54 22.38l6.319 11.95 25.97 12.94c14.29 7.119 35.67 17.26 47.53 22.54 61.6 27.43 89.89 46.02 117.6 77.25 72.54 81.89 53.25 213.5-40.59 276.8-23.99 16.19-49.32 26.05-81.78 31.85-12.55 2.24-536 3.605-558.5 1.456-74.89-7.139-131.9-71.49-132.3-149.3-0.4364-99.7 92.65-173.8 188.1-149.6 13.77 3.481 12.11 5.213 15.72-16.43 1.651-9.885 4.09-22.15 5.421-27.25 2.838-10.88 2.972-10.65-7.788-13.42-158.2-40.82-300.5 114.5-249.6 272.4 24.07 74.67 95.29 134 170.4 142 5.019 0.5334 133.8 0.8913 286.5 0.796l277.4-0.1732zm-542.1-78.88c0-0.6585-4.387-6.254-9.75-12.43-54.12-62.37-68.93-127.8-38.83-171.6 17.18-24.97 52.18-39.39 81.74-33.68 7.473 1.443 7.737 0.8974 7.737-15.98v-14.65l-5.475-2.355c-36.34-15.63-88.37-6.99-122.5 20.34-46.81 37.54-62.41 105.9-36.32 159.1 22.26 45.43 62.9 71.91 110.9 72.3 8.251 0.0663 12.43-0.3036 12.43-1.098zm324.8-4.053c16.43-32.43 33.42-92.57 39.58-140.1 3.299-25.46 2.947-86.89-0.5553-96.71-18.75-52.57-72.72-81.34-121.5-64.76-35.02 11.91-62.23 44.23-65.5 77.79-6.19 63.63 7.392 143.1 36.57 214.1l5.674 13.8h103.6zm236.9-5.354c125-43.41 154.9-202.7 53.55-285.5-16.62-13.58-45.72-30.74-72.44-42.73-7.636-3.426-25.21-11.47-39.05-17.88-13.84-6.41-25.43-11.38-25.77-11.05-0.3314 0.3314 1.666 7.742 4.438 16.47 10.95 34.46 16.66 69.85 18.92 117.3 0.8472 17.78-0.1219 16.58 12.04 14.95 25.5-3.412 52.9 6.402 69.92 25.05 37.81 41.41 27.18 109.9-27.22 175.5-11.81 14.23-11.96 14.02 5.61 7.923zm-269.1-392.3c79.23-11.76 125-84.23 93.19-147.5-6.15-12.23-5.948-14.58 1.845-21.51 20.17-17.92 27.52-27.7 32.87-43.76 29-87.04-69.19-152.1-132.5-87.82-16.7 16.95-18.73 17.23-29.91 4.102-36.54-42.91-97.82-39.58-128.2 6.959-23.42 35.92-15.17 87.12 18.58 115.3 14.61 12.21 14.64 12.3 7.919 26.95-36.66 79.97 38.94 161.7 136.2 147.3zm-39.57-55.76c-35.7-5.675-73.1-28.13-70.04-42.05 2.088-9.506 11.83-11.27 20.62-3.741 37.4 32.05 96.99 33.24 131.9 2.627 9.82-8.614 11.8-9.414 16.99-6.874 15.75 7.704 3.201 25.46-28.72 40.62-17.8 8.455-49.91 12.73-70.74 9.418zm-7.776-93.02c-2.338-2.533-4.251-4.915-4.251-5.294s-2.464-2.128-5.476-3.888c-8.466-4.944-9.969-11.76-3.924-17.81 7.483-7.483 26.26 3.883 30.43 18.42 3.373 11.76-8.315 17.73-16.77 8.569zm37.15 1.892c-6.54-6.54 1.277-22.92 14.05-29.43 12.49-6.37 23.64 5.683 13.74 14.85-2.068 1.915-5.425 5.026-7.461 6.914-2.035 1.888-5.011 4.996-6.612 6.908-3.777 4.507-9.646 4.834-13.72 0.763zm-99.76-56.52c-14.34-7.145-19.67-24.8-12.03-39.81 12.82-25.18 50.55-17.31 53.49 11.17 2.279 22.08-21.57 38.56-41.47 28.65zm151.8 0.2287c-27.7-13.1-18.45-54.97 12.16-55.06 16.89-0.0495 28.91 12.99 28.49 30.92-0.4632 19.79-22.36 32.79-40.65 24.14zm365.9 74.85c17.72-6.037 47.23-58.92 53.57-95.98 27.98-163.6-165.2-281.7-306.8-187.4-21.26 14.15-21.86 15.22-13.04 23.27 7.267 6.642 14.94 15.96 22.76 27.66 3.05 4.559 5.899 8.686 6.332 9.171 0.4325 0.485 6.457-2.957 13.39-7.649 47.73-32.31 103.5-34.83 152.8-6.917 67.02 37.98 87.37 122.3 43.7 181.2-14.01 18.89-16.27 28.37-9.885 41.34 7.169 14.56 21.71 20.55 37.15 15.29zm-654.3-29.39c0.4594-0.4597-0.0122-6.18-1.048-12.71-3.086-19.46-4.13-40.3-2.931-58.48 1.733-26.26 5.66-52.26 9.07-60.05 11.56-26.43 11.46-28.37-1.65-31.58-86.96-21.31-125.4 116.2-43.96 157.1 11.63 5.841 36.84 9.406 40.52 5.729zm475.2-0.2692c76.96-16.16 79.96-143.9 3.837-163.2-14.09-3.564-41.72-0.2593-43.83 5.243-0.5547 1.446 4.459 15.4 9.088 25.29 3.436 7.344 4.942 13.47 5.365 21.83 0.1922 3.799 1.25 13.13 2.35 20.72 3.437 23.74 2.199 68.72-2.396 87.03-1.191 4.745 10.74 6.167 25.59 3.05z" fill="#8b5835"/>
  <path d="m211.8 1002c-123.1-8.23-219.4-122-209.7-247.8 11.15-145.7 145.1-245.1 285.6-211.9 16.13 3.809 14.14 4.872 19.28-10.25 5.811-17.07 21.54-48.23 32.96-65.29 11.37-16.99 11.25-14.21 1.133-25.92-16.24-18.79-29.92-41.3-39.82-65.48l-5.654-13.82-13.71 0.3742c-34.36 0.9377-63.64-14.16-83.08-42.83-53.58-79.05 11.88-188 98.65-164.2 17.58 4.817 15.35 5.343 21.77-5.139 71.24-116.3 219.2-146.2 327.2-66.2l3.546 2.629 6.113-5.223c47.36-40.46 116.7-59.04 180.2-48.29 165.9 28.09 239.4 214.1 134.6 340.9-27.14 32.84-81.64 20.05-91.42-21.45-3.905-16.57 0.2013-31.61 13.71-50.2 20.56-28.3 26.16-54.41 18.26-85.17-17.2-66.95-100.2-103.7-163-72.08-12.56 6.325-12.39 6.975 1.888 7.066 101.9 0.6466 130 154 36.76 201-14.53 7.32-20.83 8.712-40.08 8.853-20.28 0.1483-17.86-1.394-25.12 16.01-3.17 7.59-6.954 16.15-8.409 19.02l-2.645 5.22 8.958 6.819c17.24 13.12 50.87 31.42 81.11 44.13 134.7 56.63 199.7 124.9 217.2 228.2 26.18 154.4-76.14 293.5-234.9 319.1l-15.47 2.499-271.9 0.1645c-149.5 0.091-277.4-0.2013-284.1-0.6483zm571.4-25.09c105.9-17.59 184-89.1 209.9-192.1 8.186-32.55 7.927-82.35-0.6089-117.1-15.47-62.99-53.84-113.7-114.8-151.8-22.35-13.95-39.59-22.64-79.55-40.07-29.95-13.07-65.07-31.29-81.47-42.27-12.74-8.527-20.78-12.59-18.86-9.524 0.421 0.673-3.759 6.568-12.6 17.77-9.042 11.46-9.002 8.784-0.316 21.33 3.971 5.736 10.06 15.81 13.54 22.38l6.319 11.95 25.97 12.94c14.29 7.119 35.67 17.26 47.53 22.54 61.6 27.43 89.89 46.02 117.6 77.25 72.54 81.89 53.25 213.5-40.59 276.8-23.99 16.19-49.32 26.05-81.78 31.85-12.55 2.24-536 3.605-558.5 1.456-74.89-7.139-131.9-71.49-132.3-149.3-0.4364-99.7 92.65-173.8 188.1-149.6 13.78 3.485 12.1 5.3 15.72-16.97 1.655-10.19 3.776-20.36 4.714-22.59 0.9378-2.23 1.428-4.332 1.089-4.671-0.3389-0.3388 0.0232-1.386 0.8042-2.327 0.7812-0.9412 1.105-2.027 0.7198-2.412s-0.1742-1.335 0.4691-2.11c4.425-5.332-31.7-12.11-63.64-11.93-140.1 0.7657-239.9 142.4-196.1 278.3 24.07 74.67 95.29 134 170.4 142 5.019 0.5334 133.8 0.8913 286.5 0.796l277.4-0.1732zm-541.6-78.79c0.3765-0.609-3.208-5.458-7.965-10.78-57.1-63.83-71.88-135.5-36.72-178 16.88-20.41 39.56-29.8 69.17-28.65 18.5 0.7204 16.94 2.284 16.93-16.92 0-12.33-0.4116-14.61-2.731-15.2-0.6079-0.1547-4.638-1.51-8.956-3.012-103.4-35.95-202.7 81.17-153.6 181.2 22.25 45.4 62.9 71.91 110.8 72.3 7.181 0.0575 12.66-0.3653 13.05-1.008zm326.8-6.353c21.71-48.02 35.31-102 39.73-157.7 1.935-24.38 0.7807-65.93-2.157-77.64-6.642-26.47-6.512-47.2 0.3243-51.37 9.885-6.028 17.14 0.1643 19.99 17.06 14.16 84 2.091 194.1-28.72 262.1-2.747 6.06-4.994 11.66-4.994 12.43 0 1.125 7.836 1.417 38.01 1.417h38.01l4.462-10.22c50.87-116.6 59.93-249.2 23.56-345.1-9.361-24.7-12.19-31.36-16.58-39.01-15.52-27.04-14.51-26.09-19.47-18.19-11.35 18.06-46.34 45.52-72.26 56.7-77.17 33.27-166.4 12.38-220.7-51.69-9.381-11.06-8.653-11.04-15.59-0.5769-60.77 91.59-60.73 271.7 0.0917 400.1l3.775 7.967 38.21-0.124c42.56-0.1382 40.27 0.368 35.58-7.876-6.465-11.36-21.62-61.2-27.71-91.12-10-49.15-11.77-101.4-5.517-162.9 2.88-28.33 7.612-35.92 19.86-31.88 9.611 3.172 10.44 19.74 2.626 52.49-7.108 29.8-1.372 114.4 10.64 156.9 0.8579 3.04 3.121 11.25 5.03 18.24 5.093 18.66 20.99 61.46 24.54 66.04 0.8274 1.071 12.86 1.382 53.48 1.382h52.41zm-241.1 4.937c0-0.7801-2.681-7.37-5.959-14.64-17.69-39.27-32.29-97.05-38.74-153.3-2.812-24.54-2.22-22.88-8.591-24.11-47.77-9.236-82.37 30.99-70.45 81.91 8.571 36.62 31.76 72.82 65.45 102.2l10.8 9.413h23.74c18.59 0 23.74-0.308 23.74-1.418zm420.5-1.371c41.63-30 78.82-96.14 75.16-133.7-3.953-40.53-34.52-64.67-71.81-56.71l-6.625 1.416-0.7945 5.526c-0.4369 3.04-1.844 14.23-3.127 24.87-6.674 55.34-21.32 110-41.21 153.8-1.558 3.43-2.489 6.583-2.069 7.006 1.545 1.557 48.07-0.4859 50.47-2.216zm54.91-6.71c125-43.41 154.9-202.7 53.55-285.5-16.35-13.36-45.6-30.67-71.27-42.2-7.064-3.17-24.5-11.16-38.74-17.75-26.22-12.14-29.58-13.36-28.41-10.32 12.62 32.88 21.77 82.87 23.52 128.5 0.8354 21.72 0.7441 21.52 9.228 19.94 24.79-4.62 52.53 4.116 70.83 22.3 40.33 40.08 30.5 110-24.83 176.7-12.25 14.75-12.23 14.77 6.118 8.394zm-258.7-393.2c72.25-14.98 113.1-84.96 84.59-145.1-7.651-16.15-7.833-15.6 10.4-31.37 52.14-45.08 29.29-136-37.4-148.8-28.03-5.394-51 2.475-73.34 25.13-16.31 16.54-17.73 16.69-29.14 2.993-29.33-35.2-81.66-39.58-113.9-9.508-33.55 31.33-38.09 80.33-10.98 118.6 4.576 6.453 8.54 10.41 20.19 20.14 7.846 6.554 8.164 9.011 2.65 20.45-40.49 83.95 44.02 168.8 146.9 147.5zm-53.74-56.54c-23.78-4.193-48.29-16.19-61.59-30.14-11.52-12.09 3.154-24.54 15.67-13.29 36.48 32.8 96.04 33.69 133.7 2.008 9.988-8.404 11.15-8.81 16.28-5.68 11.5 7.015 3.914 19.51-20.28 33.38-23.42 13.42-55.61 18.7-83.77 13.73zm-3.821-92.57c-1.844-2.584-5.941-6.448-9.106-8.587-8.397-5.676-9.899-13.07-3.505-17.26 11.75-7.699 35.52 16.7 26.92 27.64-3.88 4.933-10.07 4.161-14.31-1.785zm37.6 2.487c-8.051-8.051 7.596-29.84 21.43-29.84 8.596 0 11.48 10.85 4.328 16.26-4.426 3.343-9.432 8.206-13.24 12.86-3.02 3.692-9.195 4.051-12.52 0.7273zm-92.68-54.35c-16.72-2.918-25.95-19.28-20.7-36.71 5.652-18.78 29.25-25.25 43.88-12.04 21.19 19.14 4.793 53.63-23.17 48.75zm145.2-1.875c-25.33-11.54-21.08-47.83 6.243-53.31 21.37-4.291 38.56 17.75 30.43 39-5.165 13.5-23.09 20.5-36.67 14.31zm-203.6 142.7c-11.84-30.85-12.49-60.12-1.902-84.95l3.822-8.961-9.781-9.969c-49.28-50.23-38.59-136.3 21.46-172.7 34.36-20.83 82.7-16.6 116 10.14 11.12 8.92 9.303 8.621 16.3 2.684 77.55-65.85 187.3 0.9323 169.1 102.9-4.36 24.47-11.43 38.68-27.65 55.58l-10.51 10.95 2.92 7.298c10.54 26.36 10.37 55.63-0.5136 87.27-4.738 13.77 14.69-7.369 31.47-34.24 69.21-110.8 26.61-269.6-85.95-320.3-93.03-41.91-197.2-12.5-253.6 71.63-21.59 32.2-33.45 70.33-37.04 119.1-4.268 58.04 21.94 128.2 62.11 166.4 6.628 6.29 7.047 5.976 3.694-2.763zm568.4-67.33c17.72-6.037 47.23-58.92 53.57-95.98 19.72-115.4-73.54-220.5-195.6-220.5-46.46 0-99.65 18.86-127 45.04l-4.925 4.711 4.3 4.403c2.365 2.422 5.124 4.665 6.131 4.984 2.154 0.6836 13.94 15.37 21.49 26.78 2.916 4.407 5.437 8.013 5.602 8.013 0.1651 0 5.936-3.815 12.82-8.478 47.65-32.25 103.5-34.76 152.7-6.864 67.02 37.98 87.37 122.3 43.7 181.2-14.01 18.89-16.27 28.37-9.885 41.34 7.169 14.56 21.71 20.55 37.15 15.29zm-653.6-28.83c0.8555-0.8556 0.5412-5.688-1.108-17.04-6.572-45.22-2.607-87.63 12.05-128.8 5.403-15.19 5.584-14.18-3.041-17.16-51.34-17.74-101.7 30.74-94.35 90.9 5.16 42.47 39.19 75.17 76.65 73.66 4.734-0.1916 9.144-0.8858 9.801-1.543zm471.7 0.7656c27.71-4.496 52.57-29.07 61.01-60.3 15.95-59.07-31.56-118.9-83.93-105.6-17.55 4.437-17.4 4.088-9.881 23.4 13.26 34.07 17.41 86.99 10.27 131-0.7897 4.863-1.211 9.435-0.9366 10.16 0.9298 2.452 12.62 3.139 23.47 1.378z" fill="#0c5a8b"/>
  <path d="m243.9 898.6c-5.198-3.612-25.79-29.15-35.84-44.44-57.36-87.29-27.36-176.5 58.23-173.2l15.71 0.612 0.7516-4.006c0.4134-2.204 0.4202-12.09 0.0155-21.98-0.57-13.91-0.3647-19.79 0.9079-26.04 0.9044-4.438 2.928-16.03 4.496-25.75 4.337-26.9 10.81-53.75 14.38-59.69 0.7325-1.216 3.001-7.184 5.041-13.26 5.261-15.68 21.29-47.26 32.42-63.9 11.37-16.99 11.25-14.21 1.133-25.92-16.24-18.79-29.92-41.3-39.82-65.48l-5.654-13.82-13.71 0.3742c-34.36 0.9377-63.64-14.16-83.08-42.83-53.58-79.05 11.88-188 98.65-164.2 17.58 4.817 15.35 5.343 21.77-5.139 19.35-31.59 47.91-60.99 76.07-78.33 73.44-45.21 175.9-42.19 244.2 7.206 5.471 3.951 10.48 7.188 11.14 7.194 5.594 0.04753 39.84 40.18 57.27 67.12 3.66 5.656 3.225 5.628 18.36 1.176 42.52-12.51 90.46 12.63 108.9 57.07 29.71 71.78-16.06 149.9-88.15 150.4-20.28 0.1483-17.86-1.394-25.12 16.01-3.17 7.59-6.934 16.11-8.364 18.93-1.43 2.822-2.344 5.388-2.03 5.702 1.059 1.059-9.361 16.09-22.17 31.98-14.36 17.81-14.45 18.12-8.266 26.37 12.25 16.35 35.75 61.65 36.92 71.17 0.1522 1.239 2.311 8.718 4.797 16.62 11.03 35.06 17.01 71.37 18.61 113 0.8354 21.72 0.7441 21.52 9.228 19.94 24.79-4.62 52.53 4.116 70.83 22.3 40.62 40.37 30.72 109.1-25.59 177.7-14.38 17.5-10.65 17.02-136.1 17.57l-94.72 0.414 3.366-7.446c21.7-48.01 35.3-102 39.72-157.6 1.935-24.38 0.7807-65.93-2.157-77.64-6.642-26.47-6.512-47.2 0.3243-51.37 9.885-6.028 17.14 0.1642 19.99 17.06 14.16 84 2.091 194.1-28.72 262.1-2.747 6.06-4.994 11.66-4.994 12.43 0 1.125 7.836 1.417 38.01 1.417h38.01l4.462-10.22c50.87-116.6 59.93-249.2 23.56-345.1-9.361-24.7-12.19-31.36-16.58-39.01-15.52-27.04-14.51-26.09-19.47-18.19-11.35 18.06-46.34 45.52-72.26 56.7-77.17 33.27-166.4 12.38-220.7-51.69-9.381-11.06-8.653-11.04-15.59-0.5769-60.77 91.59-60.73 271.7 0.0917 400.1l3.775 7.967 38.21-0.124c42.56-0.1382 40.27 0.368 35.58-7.876-6.465-11.36-21.62-61.2-27.71-91.12-10-49.15-11.77-101.4-5.517-162.9 2.88-28.33 7.612-35.92 19.86-31.88 9.611 3.172 10.44 19.74 2.626 52.49-12.47 52.27 7.057 172.8 38.57 238l2.013 4.167-107.3 0.1865c-59.01 0.1028-107.8-0.167-108.4-0.599zm83.48-1.651c0-0.7801-2.681-7.37-5.959-14.64-17.69-39.27-32.29-97.05-38.74-153.3-2.812-24.54-2.22-22.88-8.591-24.11-47.77-9.236-82.37 30.99-70.45 81.91 8.571 36.62 31.76 72.82 65.45 102.2l10.8 9.413h23.74c18.59 0 23.74-0.308 23.74-1.418zm420.5-1.371c41.63-30 78.82-96.14 75.16-133.7-3.953-40.53-34.52-64.67-71.81-56.71l-6.625 1.416-0.7945 5.526c-0.4369 3.04-1.844 14.23-3.127 24.87-6.674 55.34-21.32 110-41.21 153.8-1.558 3.43-2.489 6.583-2.069 7.006 1.545 1.557 48.07-0.4859 50.47-2.216zm-203.8-399.9c72.25-14.98 113.1-84.96 84.59-145.1-7.651-16.15-7.833-15.6 10.4-31.37 52.14-45.08 29.29-136-37.4-148.8-28.03-5.394-51 2.475-73.34 25.13-16.31 16.54-17.73 16.69-29.14 2.993-29.33-35.2-81.66-39.58-113.9-9.508-33.55 31.33-38.09 80.33-10.98 118.6 4.576 6.453 8.54 10.41 20.19 20.14 7.846 6.554 8.164 9.011 2.65 20.45-40.49 83.95 44.02 168.8 146.9 147.5zm-53.74-56.54c-23.78-4.193-48.29-16.19-61.59-30.14-11.52-12.09 3.154-24.54 15.67-13.29 36.48 32.8 96.04 33.69 133.7 2.008 9.988-8.404 11.15-8.81 16.28-5.68 11.5 7.015 3.914 19.51-20.28 33.38-23.42 13.42-55.61 18.7-83.77 13.73zm-3.821-92.57c-1.844-2.584-5.941-6.448-9.106-8.587-8.397-5.676-9.899-13.07-3.505-17.26 11.75-7.699 35.52 16.7 26.92 27.64-3.88 4.933-10.07 4.161-14.31-1.785zm37.6 2.487c-8.051-8.051 7.596-29.84 21.43-29.84 8.596 0 11.48 10.85 4.328 16.26-4.426 3.343-9.432 8.206-13.24 12.86-3.02 3.692-9.195 4.051-12.52 0.7273zm-92.68-54.35c-16.72-2.918-25.95-19.28-20.7-36.71 5.652-18.78 29.25-25.25 43.88-12.04 21.19 19.14 4.793 53.63-23.17 48.75zm145.2-1.875c-25.33-11.54-21.08-47.83 6.243-53.31 21.37-4.291 38.56 17.75 30.43 39-5.165 13.5-23.09 20.5-36.67 14.31zm-203.6 142.7c-11.84-30.85-12.49-60.12-1.902-84.95l3.822-8.961-9.781-9.969c-49.28-50.23-38.59-136.3 21.46-172.7 34.36-20.83 82.7-16.6 116 10.14 11.12 8.92 9.303 8.621 16.3 2.684 77.55-65.85 187.3 0.9323 169.1 102.9-4.36 24.47-11.43 38.68-27.65 55.58l-10.51 10.95 2.92 7.298c10.54 26.36 10.37 55.63-0.5136 87.27-4.738 13.77 14.69-7.369 31.47-34.24 69.21-110.8 26.61-269.6-85.95-320.3-93.03-41.91-197.2-12.5-253.6 71.63-21.59 32.2-33.45 70.33-37.04 119.1-4.268 58.04 21.94 128.2 62.11 166.4 6.628 6.29 7.047 5.976 3.694-2.763zm-85.29-96.16c0.8555-0.8556 0.5411-5.688-1.108-17.04-6.572-45.22-2.607-87.63 12.05-128.8 5.403-15.19 5.584-14.18-3.041-17.16-51.34-17.74-101.7 30.74-94.35 90.9 5.16 42.47 39.19 75.17 76.65 73.66 4.734-0.1916 9.144-0.8858 9.801-1.543zm471.7 0.7656c27.71-4.496 52.57-29.07 61.01-60.3 15.95-59.07-31.56-118.9-83.93-105.6-17.55 4.437-17.4 4.088-9.881 23.4 13.26 34.07 17.41 86.99 10.27 131-0.7897 4.863-1.211 9.435-0.9366 10.16 0.9298 2.452 12.62 3.139 23.47 1.378z" fill="#744529"/>
  <path d="m235.6 888.8c-42.48-47.71-62.15-97.61-55.29-140.2 6.945-43.12 46.89-72.56 90.71-66.86 5.566 0.7234 10.52 0.8935 11.01 0.3779 0.8348-0.8764 1.225-19.72 0.8542-41.28-0.1028-6.018 0.4775-11.38 1.616-14.92 0.9775-3.04 2.85-12.49 4.162-21 1.312-8.511 3.337-19.6 4.502-24.64 1.164-5.039 2.123-10.51 2.131-12.16 0.0188-3.895 5.137-19.91 6.94-21.71 0.7665-0.7665 3.334-7.293 5.706-14.5 5.479-16.66 20.06-45.41 32.48-64.04 11.9-17.86 11.72-15.12 1.739-26.66-16.53-19.11-31.29-43.35-39.89-65.52-6.443-16.6-5.711-15.96-16.65-14.59-64.55 8.094-120-63.51-102.1-131.9 15.14-57.87 67.79-89.6 119.5-72.03 4.559 1.549 8.84 2.819 9.513 2.824 0.6731 4e-3 5.104-6.085 9.846-13.53 37.16-58.36 89.52-93.46 155.3-104.1 56.81-9.205 126 7.842 167.3 41.24 2.363 1.909 5.009 3.471 5.88 3.471 1.881 0 15.8 12.2 15.8 13.85 3.4e-4 0.6287 2.787 3.862 6.193 7.184 7.655 7.468 15.89 17.67 23.64 29.25 3.25 4.863 6.523 9.213 7.274 9.665 0.7513 0.4528 2.679 3.064 4.284 5.803 3.401 5.803 3.834 5.864 15.37 2.181 4.772-1.524 9.745-2.744 11.05-2.711 1.308 0.0326 6.605 0.01 11.77-0.0491 102.8-1.185 134.9 145.2 43.56 198.3-14.51 8.437-34.63 12.69-50.5 10.68-11.2-1.42-10.79-1.718-16.29 11.9-2.628 6.506-6.435 15.24-8.459 19.41-2.024 4.17-3.68 8.646-3.68 9.948-2.2e-4 2.582-10.37 19.5-11.95 19.5-0.5373 0-4.405 4.573-8.595 10.16-4.19 5.59-9.238 12.1-11.22 14.47-4.676 5.596-4.753 5.231 3.554 16.81 3.924 5.471 9.973 15.4 13.44 22.06 3.468 6.66 7.419 13.75 8.779 15.75 3.332 4.91 12.62 27.09 12.62 30.13 0 1.338 2.276 9.727 5.059 18.64 10.75 34.45 18.13 81.81 18.17 116.7 0.0221 17.09-1.88 15.7 21.54 15.64 96.73-0.2721 111.8 111.5 27.7 205-6.328 7.029-6.929 7.267-23.79 9.429-18.98 2.433-18.65 2.944-6.011-9.2 48.48-46.6 72.29-99.37 62.46-138.5-7.838-31.19-27.87-46.82-59.81-46.65-17.78 0.0923-20.24 1.283-21.26 10.28-8.475 74.32-21.33 127.7-41.37 171.7l-6.484 14.25-10.87-0.0862c-13.33-0.1061-12.61 1.023-7.225-11.37 63.82-146.9 59.05-314.7-11.76-413.2-5.049-7.028-4.03-7.207-17.4 3.055-22 16.89-34.72 23.77-60.43 32.72-68.28 23.77-144.9 12.94-201.7-28.52-9.698-7.074-18.01-12.86-18.46-12.86-1.186 0-18.74 25.74-23.38 34.26-5.209 9.59-19.87 45.99-22.7 56.37-28.57 104.7-18.41 219.2 29.17 328.8 2.111 4.863 3.834 9.233 3.829 9.71 0 0.4772-4.998 0.7258-11.09 0.5526l-11.09-0.315-5.558-11.93c-19.37-41.59-35.18-104.4-41.31-164.3-1.928-18.82-1.032-17.56-13.55-19.14-39.41-4.975-68.67 20.15-70.75 60.77-1.847 35.95 20.23 79.68 60.19 119.2 18.21 18.03 18.33 16.97-1.9 16.92l-12.71-0.032zm302.8-391.2c76.23-12.5 121.3-86.09 90.61-148-6.74-13.61-6.31-15.76 4.926-24.65 64.38-50.94 32.76-156.3-46.9-156.3-26.06 0-39.86 6.365-60.86 28.07-13.95 14.42-13.35 14.44-28.6-0.9629-43.01-43.45-106.2-34.38-133 19.09-17.16 34.19-7.816 81.87 20.8 106.2 17.3 14.68 17.12 14.18 10.02 29.35-38.08 81.28 42.1 163.9 143 147.3zm-48.93-59.53c-38.11-6.671-73.88-32.82-60.41-44.16 5.062-4.259 7.746-3.689 15.59 3.312 35.85 31.99 94.15 32.96 132.3 2.192 11.13-8.972 11.8-9.242 16.73-6.696 13.24 6.849 0.6506 22.34-30.13 37.05-18.76 8.967-50.18 12.49-74.09 8.304zm1.729-87.94c-1.342-0.5345-3.701-2.971-5.244-5.415-1.543-2.444-4.424-5.261-6.403-6.262-8.952-4.525-11.28-11.11-5.859-16.53 5.793-5.793 19.72 1.726 26.12 14.1 4.678 9.052-0.403 17.38-8.61 14.11zm34.9-0.512c-8.963-4.95 1.978-25.35 15.82-29.49 9.277-2.779 15.21 8.912 7.466 14.7-4.237 3.168-10.92 9.709-13.19 12.91-2.183 3.077-6.479 3.877-10.1 1.88zm-95.06-55.46c-17.45-2.924-26.73-26.05-16.86-42.02 13.9-22.48 49.02-12.04 49.02 14.57 0 17.41-15.1 30.3-32.16 27.45zm151.4-0.0399c-32.9-5.061-25.15-58.05 7.922-54.13 28.78 3.409 32.93 45 5.308 53.21-5.662 1.682-7.487 1.809-13.23 0.9257zm-204.3 151.9c0-0.7939-2.195-7.384-4.879-14.64-9.959-26.95-10.02-59.4-0.1477-81.72 3.777-8.541 3.61-9.715-2.054-14.36-19.06-15.62-31.19-40.97-35.43-74.08-2.224-17.37 6.398-51.26 17.1-67.21 35.32-52.63 107.8-61.89 153.5-19.62 6.082 5.628 4.962 5.851 16.3-3.249 51.52-41.33 127.4-25.29 154.3 32.61 20.92 45.08 13.67 93.12-19.18 127.1l-9.649 9.988 3.717 9.907c10.02 26.7 9.217 58.66-2.187 87.17-12.07 30.18 36.08-29.62 50.75-63.02 47.24-107.6 3.064-242.7-95.53-292.2-127.3-63.89-273.8 14.84-296.3 159.1-1.569 10.09-2.506 22.62-2.894 38.68l-0.5728 23.76 4.028 19.9c7 34.57 18.42 62.67 34.81 85.69 15.92 22.35 34.34 41.72 34.34 36.11zm-90.23-105.4c2.286-0.6676 2.357 0.6619-1.108-20.82-5.838-36.19-0.9413-86.98 11.89-123.4 7.387-20.94 4.627-23.48-25.56-23.56-48.69-0.1222-82.27 48.55-71.36 103.4 8.239 41.44 52.15 74.22 86.13 64.3zm477.6-1.04c54.84-13.05 77.55-93.5 39.58-140.2-19.96-24.57-47.67-33.41-75.69-24.15-10.75 3.552-10.88 3.828-6.691 14.5 15.63 39.85 20.3 84.69 14 134.3-1.064 8.365-1.588 15.56-1.164 15.98 2.563 2.563 18.49 2.372 29.97-0.3595zm-319.4 558.8-11.04-0.5526-5.128-11.61c-4.599-10.41-14.82-41.92-20.8-64.11-14.71-54.57-18.64-145.1-8.771-201.7 2.442-13.98 10.27-19.09 18.57-12.11 4.898 4.121 4.802 7.317-1.521 50.74-9.565 65.7 5.596 159.1 38.01 234.2 1.284 2.974 2.197 5.461 2.03 5.526-0.1672 0.0663-5.273-0.1288-11.35-0.4327zm121.3-0.7548c0.3373-1.105 3.662-9.469 7.388-18.59 22.39-54.79 33.31-107.1 34.96-167.4 0.6918-25.37 0.0685-35.19-4.446-70.09-3.643-28.16-3.636-28.76 0.3836-32.78 8.039-8.039 15.67-2.825 18.38 12.55 14.96 85.07 3.456 189.8-28.97 263.9l-6.051 13.82-11.13 0.3505c-10.33 0.3253-11.08 0.206-10.51-1.658z" fill="#542d15"/>
 </g>
</svg>
